<svg xmlns="http://www.w3.org/2000/svg" xmlns:xlink="http://www.w3.org/1999/xlink" width="60" height="60" viewBox="0 0 60 60">
  <defs>
    <style>
      .cls-1 {
        clip-path: url(#clip-Mesa_de_trabajo_2);
      }

      .cls-2 {
        fill: #55c172;
      }

      .cls-3 {
        fill: #fff;
      }
    </style>
    <clipPath id="clip-Mesa_de_trabajo_2">
      <rect width="60" height="60"/>
    </clipPath>
  </defs>
  <g id="Mesa_de_trabajo_2" data-name="Mesa de trabajo – 2" class="cls-1">
    <rect class="cls-3" width="60" height="60"/>
    <circle id="Elipse_1" data-name="Elipse 1" class="cls-2" cx="28" cy="28" r="28" transform="translate(2 2)"/>
    <path id="Icon_awesome-check" data-name="Icon awesome-check" class="cls-3" d="M11.208,28.7.483,17.977a1.65,1.65,0,0,1,0-2.333L2.817,13.31a1.65,1.65,0,0,1,2.333,0l7.225,7.225L27.85,5.06a1.65,1.65,0,0,1,2.333,0l2.333,2.333a1.65,1.65,0,0,1,0,2.333L13.542,28.7A1.65,1.65,0,0,1,11.208,28.7Z" transform="translate(14 13.423)"/>
  </g>
</svg>
