<?xml version="1.0" encoding="utf-8"?>
<!-- Generator: Adobe Illustrator 25.4.1, SVG Export Plug-In . SVG Version: 6.00 Build 0)  -->
<svg version="1.1" id="Capa_1" xmlns="http://www.w3.org/2000/svg" xmlns:xlink="http://www.w3.org/1999/xlink" x="0px" y="0px"
	 viewBox="0 0 406 406" style="enable-background:new 0 0 406 406;" xml:space="preserve">
<style type="text/css">
	.st0{fill-rule:evenodd;clip-rule:evenodd;fill:#FDD1A1;}
	.st1{fill-rule:evenodd;clip-rule:evenodd;fill:#5CC6D0;}
	.st2{fill-rule:evenodd;clip-rule:evenodd;fill:#CE8F64;}
	.st3{fill-rule:evenodd;clip-rule:evenodd;fill:#605F54;}
	.st4{fill-rule:evenodd;clip-rule:evenodd;fill:#0098DA;}
	.st5{fill-rule:evenodd;clip-rule:evenodd;fill:#00A859;stroke:#373435;stroke-width:0.5669;stroke-miterlimit:10;}
	.st6{fill-rule:evenodd;clip-rule:evenodd;fill:#C8C5E2;stroke:#373435;stroke-width:0.5669;stroke-miterlimit:10;}
	.st7{fill-rule:evenodd;clip-rule:evenodd;fill:#FFF212;stroke:#373435;stroke-width:0.5669;stroke-miterlimit:10;}
	.st8{fill-rule:evenodd;clip-rule:evenodd;fill:#ED3237;stroke:#373435;stroke-width:0.5669;stroke-miterlimit:10;}
	.st9{fill-rule:evenodd;clip-rule:evenodd;}
	.st10{fill-rule:evenodd;clip-rule:evenodd;fill:#3E4095;}
</style>
<g id="Capa_x0020_1">
	<g id="_2113690554656">
		<polygon class="st0" points="164,84.1 176,81.9 194.7,86.1 192.8,107.1 178.3,109 165.1,108.5 		"/>
		<path class="st1" d="M160.1,92.9l-53.5,52.5l17,20l21.5-16.5l-1,21l54.5,2.5l-1-32.5l41.5,0.5l1.5-32.5l-28.5,2l-17.5-19.5
			c-1.3,12.7-5.9,20.6-20.5,20L160.1,92.9z"/>
		<path class="st2" d="M154.6,20.6l-9,9.5l4.3,26.5l24.3-13.5l28.2-6.7l8.8-20.2C192.1,13.1,179,13.4,154.6,20.6z"/>
		<path class="st3" d="M143.1,187.4l-29,110c2.2,19.4,12.5,21.6,28,13l29-101l20,9l2,62c11.9,9.2,22.8,10.8,32,0v-67l-23.4-40.5
			h-58.6V187.4z"/>
		<rect x="326.4" y="138.4" class="st4" width="42.6" height="252"/>
		<rect x="250.5" y="203.4" class="st5" width="42.6" height="187"/>
		<rect x="170.5" y="290.4" class="st6" width="42.6" height="100"/>
		<rect x="94.5" y="317.4" class="st7" width="42.6" height="73"/>
		<polygon class="st2" points="49.6,167.1 15.6,201.9 16.8,210.1 64.4,257.6 73.3,255.6 94.3,236.6 109.1,220.4 54.4,166.4 		"/>
		<polygon class="st0" points="120.4,156.9 103.5,147.6 89.8,158.9 91.7,179.8 106.2,181.8 122.3,170 		"/>
		<polygon class="st0" points="241.5,113.7 253.5,111.4 272.2,115.6 270.3,136.6 255.8,138.5 242.6,138 		"/>
		<polygon class="st0" points="150.2,56.1 173.8,43.4 194.8,40.2 196.6,77.2 176.3,83.8 157.4,78.4 		"/>
		<rect x="15.5" y="338.8" class="st8" width="42.6" height="51.7"/>
		<polygon class="st5" points="345.3,33.3 348.7,80.4 385.1,53.7 		"/>
		<g>
			<g>
				<g>
					<path class="st9" d="M57.4,395H15.1c-2.3,0-4.1-1.8-4.1-4.1v-54.2c0-2.3,1.8-4.1,4.1-4.1h42.3c2.3,0,4.1,1.8,4.1,4.1v54.2
						C61.5,393.2,59.7,395,57.4,395L57.4,395z M19.2,386.8h34.1v-45.9H19.2V386.8z"/>
				</g>
			</g>
			<g>
				<path class="st9" d="M259.6,106.3l-47.2-0.2l-12.9-15.8c-1.4-1.8-3.1-3.4-4.9-4.7v-2c4.6-3.8,7.7-9.5,7.7-16V41.3
					c0-0.6,0-1.1-0.1-1.7c7.7-5.4,12.8-14.4,12.8-24.5c0-2.3-1.8-4.1-4.1-4.1h-39.2c-15.8,0-28.7,12.9-28.7,28.7v14.1
					c0,10.7,7.4,21.7,15.9,27.6v4.4c-1.5,1-2.9,2.2-4.2,3.5l-65.2,65.2c-3,3-5,7-5.6,11.3c-3.2,0-6.3,1.2-8.7,3.6l-5,5.1l-9.8-9.8
					c-4.8-4.8-12.6-4.8-17.4,0l-7.7,7.7c-1.7,1.7-2.4,4.1-2,6.4L14.6,197c-4.8,4.8-4.8,12.6,0,17.4L59,258.8
					c4.7,4.7,12.7,4.7,17.4,0l18.5-18.5c2.2,0.3,4.8-0.5,6.4-2.1l7.6-7.6c4.8-4.8,4.8-12.6,0-17.4l-9.8-9.8l5.1-5.1
					c3-3,4.3-7.4,3.3-11.5c3.3-0.8,6.3-2.5,8.8-5l23.6-23.5l-1.1,8.3c-0.7,5.2,0,10.4,2,15.1L109.5,296c-1.6,5.8-0.4,12.2,3.1,17
					h-20c-2.3,0-4.1,1.8-4.1,4.1v73.9c0,2.3,1.8,4.1,4.1,4.1h42.3c2.3,0,4.1-1.8,4.1-4.1v-72.7c4.3-2.6,7.5-6.7,8.9-11.7l13-47.1
					c0.6-2.2-0.7-4.5-2.9-5c-2.2-0.6-4.4,0.7-5,2.8l-13,47.1c-1.4,5-6,8.6-11.3,8.6c-7.6,0-13.3-7.4-11.3-14.8l29.3-107.3
					c1.1,1.1,2.4,2.2,3.7,3.2l37.9,27.6v51.2c0,4.3,1.4,8.4,3.9,11.8h-22.1c-2.3,0-4.1,1.8-4.1,4.1v102.2c0,2.3,1.8,4.1,4.1,4.1
					h42.3c2.3,0,4.1-1.8,4.1-4.1v-99.8c7-3.1,11.9-10.1,11.9-18.3v-52.8c0-7.5-2.2-14.7-6.4-20.9l-19.4-28.9l-0.1-25.7l57.1-0.2
					c10.5,0,19-8.6,19-19S270.1,106.3,259.6,106.3L259.6,106.3z M130.8,321.1v65.7H96.7v-65.7H130.8z M151.1,39.7
					c0-11.3,9.2-20.5,20.5-20.5h34.7c-1.9,10.1-10.8,17.7-21.5,17.7h-13.9c-1.7,0-3.2,1-3.8,2.6c-2.3,7.1-7.5,13.8-16,11.5V39.7z
					 M152.3,59.5c9.6,0.9,18.4-5.3,21.4-14.4h11.1c3.2,0,6.3-0.5,9.2-1.4v23.9c0,7.7-6.9,12.8-14.3,12.3
					C167,79.9,155.9,71.4,152.3,59.5L152.3,59.5z M186.4,87.6v12.9c0,2.2-1.8,4.1-4.1,4.1c-8.4,0-15.3-6.9-15.3-15.3v-3.5
					C172.9,88,180.2,89,186.4,87.6z M70.7,253c-2,1.6-3.9,1.6-5.8,0l-44.4-44.4c-1.6-2-1.6-3.9,0-5.8L37,186.2L53.6,214l-0.1,0.1
					c-1.6,1.6-1.6,4.2,0,5.8c1.8,1.8,4.2,1.2,5.9-0.1l27.8,16.6L70.7,253z M103.1,219c1.6,1.6,1.6,4.2,0,5.8l-7.2,7.2l-30.6-18.3
					c1-1.6,0.9-3.7-0.5-5.1c-1.4-1.4-3.6-1.6-5.2-0.5l-18.3-30.6l7.2-7.2c1.6-1.6,4.2-1.6,5.8,0L103.1,219z M98.4,192.6l-5.1,5
					l-17.5-17.5l5.1-5.1c0.9-0.9,2.3-1.3,3.5-1.1c1.9,6.5,7.5,11.6,14.1,13C100,188.9,99.9,190.7,98.4,192.6z M110.5,176.1
					c-4.2,4.2-11.1,4.3-15.4,0.1c-4.4-4.3-4.1-11.7,0.1-16l8.6-8.6l15.6,15.6L110.5,176.1z M208.3,386.8h-34.1v-93.9h34.1V386.8z
					 M215.2,203.8c3.3,4.8,5,10.5,5,16.3v52.8c0,6.5-5.3,11.8-11.8,11.8c-6.4,0-11.8-5.4-11.8-11.8v-53.3c0-1.3-0.6-2.6-1.7-3.3
					l-39.6-28.8c-4-2.9-6.7-7.1-7.9-11.7h49L215.2,203.8z M237.5,136.3l-39.2,0.1c-2.3,0-4.1,1.8-4.1,4.1l0.1,27h-47.5l2.7-20.1
					c0.5-3.8-4.3-6.2-6.9-3.4l-17.4,17.4l-15.6-15.6l50-50c2.8,9.8,11.9,17,22.6,17c6.8,0,12.3-5.5,12.3-12.3v-3.3l12.6,15.6
					c0.8,1,2,1.5,3.2,1.5l27.1,0.1V136.3z M259.6,136.2l-13.8,0.1v-21.8l13.8,0.1c6,0,10.8,4.9,10.8,10.8S265.5,136.2,259.6,136.2
					L259.6,136.2z"/>
			</g>
			<g>
				<g>
					<path class="st9" d="M289.9,395h-42.3c-2.3,0-4.1-1.8-4.1-4.1V202.2c0-2.3,1.8-4.1,4.1-4.1h42.3c2.3,0,4.1,1.8,4.1,4.1v188.7
						C294,393.2,292.1,395,289.9,395z M251.7,386.8h34V206.3h-34V386.8z"/>
				</g>
			</g>
			<g>
				<path class="st9" d="M393,50.4L350.3,26v-7.5c0-2.3-1.8-4.1-4.1-4.1c-2.3,0-4.1,1.8-4.1,4.1v114h-17c-2.3,0-4.1,1.8-4.1,4.1
					v22.1c0,2.3,1.8,4.1,4.1,4.1c2.3,0,4.1-1.8,4.1-4.1v-18h34.1v246.2h-34.1V217c0-2.3-1.8-4.1-4.1-4.1c-2.3,0-4.1,1.8-4.1,4.1
					v173.9c0,2.3,1.8,4.1,4.1,4.1h42.3c2.3,0,4.1-1.8,4.1-4.1V136.5c0-2.3-1.8-4.1-4.1-4.1h-17V82.7L393,57.5
					C395.7,55.9,395.6,51.9,393,50.4L393,50.4z M350.3,73.2V35.4L382.8,54L350.3,73.2z"/>
			</g>
		</g>
		<g>
			<path class="st10" d="M111.2,51.4H92.9c-2.3,0-4.1,1.8-4.1,4.1c0,2.3,1.8,4.1,4.1,4.1h8.3l-63.1,62.1c-1.6,1.6-1.6,4.2-0.1,5.8
				c1.9,1.6,3.9,1.6,5.8,0.1l63.2-62.3v8.3c0,2.2,1.8,4.1,4.1,4.1s4.1-1.8,4.1-4.1V55.5C115.3,53.3,113.5,51.4,111.2,51.4
				L111.2,51.4z"/>
		</g>
		<g>
			<g>
				<circle class="st9" cx="325.1" cy="188.2" r="5.3"/>
			</g>
		</g>
		<g>
			<g>
				<circle class="st10" cx="25.1" cy="139.7" r="5.3"/>
			</g>
		</g>
		<g>
			<g>
				<circle class="st9" cx="163.6" cy="233.1" r="5.3"/>
			</g>
		</g>
	</g>
</g>
</svg>
