<?xml version="1.0" encoding="utf-8"?>
<!-- Generator: Adobe Illustrator 25.4.1, SVG Export Plug-In . SVG Version: 6.00 Build 0)  -->
<svg version="1.1" id="Capa_1" xmlns="http://www.w3.org/2000/svg" xmlns:xlink="http://www.w3.org/1999/xlink" x="0px" y="0px"
	 viewBox="0 0 500 500" style="enable-background:new 0 0 500 500;" xml:space="preserve">
<style type="text/css">
	.st0{fill-rule:evenodd;clip-rule:evenodd;fill:#5CC6D0;}
	.st1{fill-rule:evenodd;clip-rule:evenodd;fill:#D7CC75;stroke:#373435;stroke-width:0.5669;stroke-miterlimit:10;}
	.st2{fill-rule:evenodd;clip-rule:evenodd;fill:#00A859;}
	.st3{fill-rule:evenodd;clip-rule:evenodd;fill:#FFF212;}
	.st4{fill-rule:evenodd;clip-rule:evenodd;fill:#ABA994;}
	.st5{fill-rule:evenodd;clip-rule:evenodd;fill:#FDD1A1;}
	.st6{fill-rule:evenodd;clip-rule:evenodd;}
</style>
<g id="Capa_x0020_1">
	<g id="_2812944775232">
		<rect x="18.3" y="376.2" class="st0" width="100" height="103.8"/>
		<rect x="154.5" y="318.1" class="st1" width="175" height="125"/>
		<ellipse class="st2" cx="237.6" cy="225.6" rx="91.8" ry="91.2"/>
		<ellipse class="st3" cx="373.3" cy="122.4" rx="108.7" ry="108.1"/>
		<ellipse class="st4" cx="375.2" cy="123.1" rx="71.9" ry="72.5"/>
		<polygon class="st5" points="122.6,395 184.5,394.3 218.3,406.2 254.5,411.8 280.8,413.7 292,427.5 287,441.2 306.4,446.2 
			350.8,446.2 368.9,452.5 371.4,470 354.5,484.3 119.5,484.3 		"/>
		<g>
			<g>
				<path class="st6" d="M238.8,196c6.3,0,11.4,5.1,11.4,11.4c0,3.9,3.2,7.1,7,7.1c3.9,0,7.1-3.2,7.1-7.1c0-11.6-7.8-21.4-18.5-24.5
					v-10.5c0-3.9-3.1-7.1-7-7.1c-3.9,0-7,3.2-7,7.1v10.5c-10.7,3-18.5,12.9-18.5,24.5c0,14.1,11.4,25.5,25.5,25.5c0.2,0,0.4,0,0.6,0
					c6,0.3,10.8,5.3,10.8,11.4c0,6.3-5.1,11.4-11.4,11.4c-6.3,0-11.4-5.1-11.4-11.4c0-3.9-3.2-7.1-7-7.1c-3.9,0-7.1,3.2-7.1,7.1
					c0,11.6,7.8,21.4,18.5,24.5v10.5c0,3.9,3.1,7,7,7c3.9,0,7-3.2,7-7v-10.5c10.6-3,18.5-12.9,18.5-24.5c0-14.1-11.4-25.5-25.5-25.5
					c-0.2,0-0.4,0-0.6,0c-6-0.3-10.8-5.3-10.8-11.4C227.4,201.1,232.6,196,238.8,196z"/>
				<path class="st6" d="M374.4,42.4c-45.6,0-82.6,37.1-82.6,82.6c0,45.5,37.1,82.6,82.6,82.6c45.5,0,82.6-37.1,82.6-82.6
					C457,79.5,420,42.4,374.4,42.4z M374.4,193.6c-37.8,0-68.6-30.8-68.6-68.6c0-37.8,30.8-68.5,68.6-68.5
					c37.8,0,68.5,30.8,68.5,68.5C443,162.8,412.2,193.6,374.4,193.6z"/>
				<path class="st6" d="M374.4,240c63.4,0,115-51.6,115-115c0-22.8-6.7-44.9-19.3-63.8c-2.2-3.3-6.5-4.1-9.7-1.9
					c-3.2,2.2-4.1,6.5-1.9,9.7c11.1,16.6,16.9,36,16.9,56c0,55.7-45.3,101-100.9,101c-55.7,0-101-45.3-101-101
					c0-55.6,45.3-100.9,101-100.9c24.1,0,47.4,8.6,65.6,24.2c2.9,2.5,7.4,2.2,9.9-0.8c2.5-2.9,2.2-7.4-0.8-9.9
					C428.4,19.8,401.8,10,374.4,10c-63.4,0-115,51.6-115,115c0,2.3,0.1,4.6,0.2,6.9c-6.8-1.5-13.7-2.3-20.8-2.3
					c-53,0-96.2,43.2-96.2,96.2c0,34.4,18.1,64.5,45.3,81.6h-28.9c-9,0-16.4,7.3-16.4,16.4v28.9c0,3.5,1.1,6.7,3,9.4
					c-1.9,2.7-3,5.9-3,9.4v14h-15.4v-1.6c0-9-7.4-16.4-16.4-16.4H21.1c-6.4,0-11.7,5.3-11.7,11.7v99.1c0,6.4,5.2,11.7,11.7,11.7
					h331.8c14.3,0,25.9-11.6,25.9-25.9c0-14.3-11.6-25.9-25.9-25.9H335v-19.1c0-3.5-1.1-6.7-3-9.4c1.9-2.7,3-5.9,3-9.4v-28.9
					c0-3.5-1.1-6.7-3-9.4c1.9-2.7,3-5.9,3-9.4v-28.9c0-9.1-7.4-16.4-16.4-16.4h-28.8c18.1-11.3,32.4-28.6,39.8-49.6
					c1.3-3.6-0.6-7.7-4.3-9c-3.7-1.3-7.7,0.6-9,4.3c-10.5,29.8-37.1,50.7-68,54.3h-19c-40.8-4.7-72.6-39.5-72.6-81.6
					c0-45.3,36.8-82.1,82.1-82.1c7.9,0,15.5,1.1,22.7,3.2C271.8,199.9,318.5,240,374.4,240L374.4,240z M63.8,475.9H23.5v-94.4h40.3
					V475.9z M156.7,371.5c0-1.3,1-2.4,2.3-2.4h159.5c1.3,0,2.3,1.1,2.3,2.4v28.9c0,1.3-1.1,2.3-2.3,2.3h-73.8
					c-7,0-13.9-1.3-20.5-3.8l-22.3-8.6c-8.2-3.2-16.8-4.7-25.6-4.7h-19.7V371.5L156.7,371.5z M113.2,383.9v89.7c0,1.3-1,2.3-2.3,2.3
					h-33v-94.4h33C112.2,381.5,113.2,382.6,113.2,383.9L113.2,383.9z M364.7,464.1c0,6.5-5.3,11.8-11.8,11.8H127.1
					c0.1-0.7,0.2-1.5,0.2-2.3v-74h49.2c7.1,0,13.9,1.3,20.5,3.8l22.4,8.6c8.2,3.2,16.8,4.8,25.5,4.8H261l0,0h13.4
					c5.7,0.2,10.3,4.9,10.3,10.7c0,5.9-4.8,10.7-10.7,10.7h-41.1c-3.9,0-7.1,3.2-7.1,7.1c0,3.9,3.2,7,7.1,7h120
					C359.4,452.3,364.7,457.6,364.7,464.1L364.7,464.1z M296.3,438.2c1.6-3.2,2.4-6.9,2.4-10.7c0-3.8-0.9-7.4-2.4-10.7h22.3
					c1.3,0,2.3,1.1,2.3,2.3v19.1H296.3z M320.9,323.8v28.9c0,1.3-1.1,2.4-2.3,2.4H159.1c-1.3,0-2.3-1.1-2.3-2.4v-28.9
					c0-1.3,1-2.4,2.3-2.4h159.5C319.9,321.4,320.9,322.5,320.9,323.8z"/>
				<path class="st6" d="M381.5,122v-19.7c0-3.9-3.2-7.1-7-7.1c-3.9,0-7.1,3.2-7.1,7.1V125c0,1.9,0.8,3.8,2.2,5.1l12.4,11.7
					c1.3,1.3,3.1,1.9,4.8,1.9c1.9,0,3.7-0.7,5.1-2.2c2.7-2.8,2.5-7.3-0.3-9.9L381.5,122z"/>
				<path class="st6" d="M374.4,80.6c3.9,0,7.1-3.2,7.1-7.1c0-3.9-3.2-7-7.1-7c-3.9,0-7,3.2-7,7C367.4,77.4,370.5,80.6,374.4,80.6z"
					/>
				<path class="st6" d="M374.4,169.4c-3.9,0-7,3.2-7,7.1c0,3.9,3.2,7,7,7c3.9,0,7.1-3.2,7.1-7C381.5,172.6,378.3,169.4,374.4,169.4
					z"/>
				<path class="st6" d="M405.8,83.6c-2.8,2.8-2.8,7.2,0,10c2.7,2.7,7.2,2.7,9.9,0c2.8-2.8,2.8-7.2,0-10
					C413,80.9,408.6,80.9,405.8,83.6z"/>
				<path class="st6" d="M343,156.4c-2.8-2.7-7.2-2.7-10,0c-2.7,2.7-2.7,7.2,0,10c2.8,2.7,7.2,2.7,10,0
					C345.7,163.6,345.7,159.2,343,156.4z"/>
				<circle class="st6" cx="425.9" cy="125" r="7"/>
				<path class="st6" d="M323,118c-3.9,0-7,3.2-7,7c0,3.9,3.2,7.1,7,7.1c3.9,0,7.1-3.2,7.1-7.1C330,121.1,326.9,118,323,118z"/>
				<circle class="st6" cx="410.8" cy="161.4" r="7"/>
				<path class="st6" d="M343,83.6c-2.8-2.7-7.2-2.7-10,0c-2.7,2.8-2.7,7.2,0,10c2.8,2.7,7.2,2.7,10,0
					C345.7,90.8,345.7,86.4,343,83.6z"/>
			</g>
		</g>
	</g>
</g>
</svg>
