<?xml version="1.0" encoding="utf-8"?>
<!-- Generator: Adobe Illustrator 25.4.1, SVG Export Plug-In . SVG Version: 6.00 Build 0)  -->
<svg version="1.1" id="Capa_1" xmlns="http://www.w3.org/2000/svg" xmlns:xlink="http://www.w3.org/1999/xlink" x="0px" y="0px"
	 viewBox="0 0 406 406" style="enable-background:new 0 0 406 406;" xml:space="preserve">
<style type="text/css">
	.st0{fill-rule:evenodd;clip-rule:evenodd;fill:#E6E7E8;}
	.st1{fill-rule:evenodd;clip-rule:evenodd;fill:#8BCCA2;}
	.st2{fill-rule:evenodd;clip-rule:evenodd;fill:#A98F71;}
	.st3{fill-rule:evenodd;clip-rule:evenodd;fill:#FDD1A1;stroke:#373435;stroke-width:0.5669;stroke-miterlimit:10;}
	.st4{fill-rule:evenodd;clip-rule:evenodd;fill:#FDD1A1;}
	.st5{fill-rule:evenodd;clip-rule:evenodd;fill:#FFF212;}
	.st6{fill-rule:evenodd;clip-rule:evenodd;fill:#00AFEF;stroke:#373435;stroke-width:0.5669;stroke-miterlimit:10;}
	.st7{fill-rule:evenodd;clip-rule:evenodd;fill:#ED2F59;stroke:#373435;stroke-width:0.5669;stroke-miterlimit:10;}
	.st8{fill-rule:evenodd;clip-rule:evenodd;}
</style>
<g id="Capa_x0020_1">
	<g id="_2812944779008">
		<ellipse class="st0" cx="241.6" cy="55.9" rx="10" ry="17.3"/>
		<ellipse class="st0" cx="164.6" cy="55.9" rx="10" ry="17.3"/>
		<path class="st0" d="M173.6,15.6h59c5,0,9,4,9,9v11.5c0,5-4,9-9,9h-59c-5,0-9-4-9-9V24.6C164.6,19.6,168.6,15.6,173.6,15.6z"/>
		<polygon class="st1" points="111.6,116.1 294.1,116.1 294.1,144.6 244.1,144.6 244.1,223.6 161.1,223.6 161.1,144.6 111.6,144.6 
					"/>
		<path class="st2" d="M203.4,364.6c0.4,1.6,0.7,3.3,0.7,5c0,11.1,9.3,20,20.7,20c11.5,0,20.7-9,20.7-20c0-2.1-0.4-4.2-1-6.2V228.1
			h-82.5v136.5h1.2c-0.4,1.6-0.7,3.3-0.7,5c0,11.1,9.3,20,20.7,20c11.5,0,20.7-9,20.7-20c0-1.7,0.2-3.4,0.7-5H203.4z"/>
		<path class="st3" d="M202.8,45.6c3.8,0,7.4,0.7,10.7,1.9H234v25.6h-1.6c0,0.2,0,0.3,0,0.5c0,15.5-13.2,28-29.5,28
			c-16.3,0-29.5-12.5-29.5-28c0-0.2,0-0.3,0-0.5h-2.1V47.5h20.9C195.4,46.3,199,45.6,202.8,45.6z"/>
		<rect x="188.6" y="105.7" class="st4" width="28.7" height="20.9"/>
		<path class="st4" d="M350.6,113.9h-43h-3v0.3c-6.7,1.4-11.8,7.3-11.8,14.4c0,8.2,6.6,14.8,14.7,14.8c3.1,0,5.9-0.9,8.2-2.5h34.8
			V113.9z"/>
		<path class="st4" d="M110.8,113.9h-43h-3v0.3c-6.7,1.4-11.7,7.3-11.7,14.4c0,8.2,6.6,14.8,14.7,14.8c3.1,0,5.9-0.9,8.2-2.5h34.8
			V113.9z"/>
		<path class="st5" d="M290.8,219.8h68c6.6,0,12,5.4,12,12v2c0,6.6-5.4,12-12,12h-68c-6.6,0-12-5.4-12-12v-2
			C278.8,225.2,284.2,219.8,290.8,219.8z"/>
		<path class="st5" d="M45.8,219.8h68c6.6,0,12,5.4,12,12v2c0,6.6-5.4,12-12,12h-68c-6.6,0-12-5.4-12-12v-2
			C33.8,225.2,39.2,219.8,45.8,219.8z"/>
		<path class="st6" d="M360.7,243.8c0.6,2.5,0.9,5.1,0.9,7.8c0,18.8-15.2,34-34,34c-18.8,0-34-15.2-34-34c0-2.7,0.3-5.3,0.9-7.8
			H360.7z"/>
		<path class="st6" d="M112.7,243.8c0.6,2.5,0.9,5.1,0.9,7.8c0,18.8-15.2,34-34,34c-18.8,0-34-15.2-34-34c0-2.7,0.3-5.3,0.9-7.8
			H112.7z"/>
		<path class="st7" d="M350,395c-0.7,0-1.4-0.1-2.2-0.5c-44.6-24.9-44.4-49.4-42.3-58.8c2.8-12.4,13.6-21.9,25.7-22.7
			c7.6-0.5,14.2,2.6,18.7,8.6c4.5-6,11.1-9.1,18.7-8.6c12.1,0.8,22.9,10.3,25.7,22.7c2.1,9.4,2.3,33.9-42.3,58.8
			C351.4,394.8,350.7,395,350,395L350,395z"/>
		<path class="st7" d="M38.9,19.2c-9.1,0-17.2,7.8-19.2,16.4c-1.7,7.5-1.4,27,36.4,48.7C93.9,62.5,94.2,43,92.5,35.6
			c-2.3-10-11.1-15.9-18.2-16.4C70.5,19,63.5,20,60,29.7c-0.6,1.6-2.2,2.7-3.9,2.7c-1.7,0-3.3-1.1-3.9-2.7
			C49,20.8,42.8,19.2,38.9,19.2z"/>
		<path class="st7" d="M56.2,93c-0.7,0-1.4-0.1-2.2-0.5C9.5,67.7,9.6,43.2,11.7,33.8C14.5,21.4,25.3,11.8,37.4,11
			c7.6-0.5,14.2,2.6,18.7,8.6c4.5-6,11.1-9.1,18.7-8.6c12.1,0.8,22.9,10.3,25.7,22.7c2.1,9.4,2.2,33.9-42.3,58.8
			C57.6,92.9,56.9,93,56.2,93L56.2,93z"/>
		<g>
			<path class="st8" d="M359.4,218.1L359.4,218.1l-6.9-17.7c-0.8-2.1-3.2-3.2-5.3-2.4c-2.1,0.8-3.2,3.2-2.4,5.3l5.7,14.7h-48.9
				l24.4-63.5l11.7,30.4c0.8,2,3.3,3.1,5.3,2.4c2.1-0.8,3.2-3.2,2.4-5.3l-12.8-33.1h6.2c11,0,20-9,20-20c0-11-9-20-20-20H223.5v-6.4
				c6.9-4.6,12.2-11.4,14.9-19.4c17.7-12.1,24-35.2,9.7-52.6c-0.1-10.8-8.8-19.5-19.6-19.5h-51c-10.8,0-19.6,8.7-19.6,19.5
				c-14.3,17.4-8.1,40.5,9.7,52.6c2.7,8,8,14.9,14.9,19.4v6.4H67.1c-11,0-20,9-20,20c0,11,9,20,20,20h6.2L60.5,182
				c-0.8,2.1,0.3,4.5,2.4,5.3c2,0.8,4.5-0.4,5.3-2.4l11.7-30.4l24.4,63.5H55.5l5.7-14.7c0.8-2.1-0.3-4.5-2.4-5.3
				c-2.1-0.8-4.5,0.2-5.3,2.4l-6.8,17.7h-0.1c-8.8,0-15.9,7.1-15.9,15.9c0,6.6,4.1,12.3,9.9,14.7v0.2c0,21.7,17.7,39.4,39.4,39.4
				s39.4-17.7,39.4-39.4v-0.2c5.8-2.4,9.8-8.1,9.8-14.7c0-8.8-7.1-15.9-15.9-15.9h-0.1l-26.6-69.1h71.1v221.3
				c0,13.7,11.1,24.7,24.7,24.7c8.6,0,16.2-4.4,20.7-11.1c4.5,6.7,12,11.1,20.7,11.1c13.6,0,24.7-11.1,24.7-24.7V212.8
				c0-2.3-1.8-4.1-4.1-4.1c-2.3,0-4.1,1.8-4.1,4.1V223h-74.4v-78.2c0-2.3-1.8-4.1-4.1-4.1h-46.5v-23.6h67.5
				c1.4,9.9,10,17.6,20.3,17.6c10.3,0,18.9-7.7,20.3-17.6h67.5v23.6h-46.5c-2.3,0-4.1,1.8-4.1,4.1v16.6c0,2.3,1.8,4.1,4.1,4.1
				c2.3,0,4.1-1.8,4.1-4.1v-12.5h71.1l-26.6,69.1h-0.1c-8.8,0-15.9,7.1-15.9,15.9c0,6.6,4.1,12.3,9.8,14.7v0.2
				c0,21.7,17.7,39.4,39.4,39.4c21.7,0,39.4-17.7,39.4-39.4v-0.2c5.8-2.4,9.8-8.1,9.8-14.7C375.3,225.2,368.2,218.1,359.4,218.1z
				 M79.9,280.1c-16.8,0-30.6-13.4-31.2-30.2H111C110.5,266.6,96.8,280.1,79.9,280.1L79.9,280.1z M113.2,226.2
				c4.3,0,7.7,3.5,7.7,7.7s-3.5,7.7-7.7,7.7H46.6c-4.3,0-7.7-3.5-7.7-7.7s3.5-7.7,7.7-7.7H113.2z M165.8,231.2h74.4v139.1
				c0,9.1-7.4,16.6-16.6,16.6c-9.1,0-16.6-7.4-16.6-16.6V259.4c0-2.3-1.8-4.1-4.1-4.1s-4.1,1.8-4.1,4.1v110.9
				c0,9.1-7.4,16.6-16.6,16.6c-9.1,0-16.6-7.4-16.6-16.6V231.2L165.8,231.2z M107,140.7H67.1c-6.5,0-11.8-5.3-11.8-11.8
				c0-6.5,5.3-11.8,11.8-11.8H107V140.7z M245.4,41.3c5,10,2.4,21.5-5,29.5V54.1c0-2.2-0.3-4.4-0.8-6.6
				C241.9,45.9,243.9,43.7,245.4,41.3L245.4,41.3z M165.6,54.1v16.7c-7.5-8.1-10.1-19.5-5-29.5c1.5,2.5,3.5,4.6,5.8,6.2
				C165.9,49.6,165.6,51.8,165.6,54.1L165.6,54.1z M166.1,31.3v-0.7c0-6.3,5.1-11.5,11.5-11.5h51c6.3,0,11.5,5.1,11.5,11.5v0.7
				c0,6.3-5.1,11.5-11.5,11.5h-51C171.2,42.8,166.1,37.6,166.1,31.3z M215.3,114.2c0,6.8-5.5,12.3-12.3,12.3
				c-6.8,0-12.3-5.5-12.3-12.3v-7.7c7.9,2.8,16.7,2.8,24.6,0V114.2z M203,100.5c-16.1,0-29.1-13.1-29.1-29.1V54.1
				c0-1.2,0.1-2.3,0.3-3.4c1.1,0.2,2.2,0.3,3.4,0.3h51c1.1,0,2.3-0.1,3.4-0.3c0.2,1.1,0.3,2.2,0.3,3.4v17.3
				C232.1,87.4,219.1,100.5,203,100.5L203,100.5z M299,140.7v-23.6h39.9c6.5,0,11.8,5.3,11.8,11.8c0,6.5-5.3,11.8-11.8,11.8H299
				L299,140.7z M326.1,280.1c-16.9,0-30.6-13.4-31.2-30.2h62.3C356.7,266.6,342.9,280.1,326.1,280.1L326.1,280.1z M359.4,241.7
				h-66.6c-4.3,0-7.7-3.5-7.7-7.7s3.5-7.7,7.7-7.7h66.6c4.3,0,7.7,3.5,7.7,7.7S363.7,241.7,359.4,241.7z"/>
		</g>
		<path class="st8" d="M56.2,93c-0.7,0-1.4-0.1-2.2-0.5C9.5,67.7,9.6,43.2,11.7,33.8C14.5,21.4,25.3,11.8,37.4,11
			c7.6-0.5,14.2,2.6,18.7,8.6c4.5-6,11.1-9.1,18.7-8.6c12.1,0.8,22.9,10.3,25.7,22.7c2.1,9.4,2.2,33.9-42.3,58.8
			C57.6,92.9,56.9,93,56.2,93L56.2,93z M38.9,19.2c-9.1,0-17.2,7.8-19.2,16.4c-1.7,7.5-1.4,27,36.4,48.7
			C93.9,62.5,94.2,43,92.5,35.6c-2.3-10-11.1-15.9-18.2-16.4C70.5,19,63.5,20,60,29.7c-0.6,1.6-2.2,2.7-3.9,2.7
			c-1.7,0-3.3-1.1-3.9-2.7C49,20.8,42.8,19.2,38.9,19.2z"/>
		<g>
			<g>
				<path class="st8" d="M350,395c-0.7,0-1.4-0.1-2.2-0.5c-44.6-24.9-44.4-49.4-42.3-58.8c2.8-12.4,13.6-21.9,25.7-22.7
					c7.6-0.5,14.2,2.6,18.7,8.6c4.5-6,11.1-9.1,18.7-8.6c12.1,0.8,22.9,10.3,25.7,22.7c2.1,9.4,2.3,33.9-42.3,58.8
					C351.4,394.8,350.7,395,350,395L350,395z M332.7,321.1c-9.2,0-17.2,7.8-19.2,16.4c-1.7,7.5-1.4,27,36.4,48.7
					c37.8-21.7,38.1-41.2,36.4-48.7c-2.3-10-11.1-15.9-18.2-16.4c-3.8-0.2-10.8,0.8-14.3,10.4c-1.3,3.5-6.4,3.5-7.7,0
					C342.8,322.7,336.6,321.1,332.7,321.1L332.7,321.1z"/>
			</g>
		</g>
		<g>
			<g>
				<g>
					<path class="st8" d="M359.8,53.7h-8.1c-2.3,0-4.1-1.8-4.1-4.1c0-2.3,1.8-4.1,4.1-4.1h8.1c2.3,0,4.1,1.8,4.1,4.1
						C363.9,51.8,362,53.7,359.8,53.7z"/>
				</g>
			</g>
			<g>
				<g>
					<path class="st8" d="M328.5,53.7h-8.1c-2.3,0-4.1-1.8-4.1-4.1c0-2.3,1.8-4.1,4.1-4.1h8.1c2.3,0,4.1,1.8,4.1,4.1
						C332.6,51.8,330.7,53.7,328.5,53.7z"/>
				</g>
			</g>
			<g>
				<g>
					<path class="st8" d="M340.1,73.4c-2.3,0-4.1-1.8-4.1-4.1v-8.1c0-2.3,1.8-4.1,4.1-4.1c2.3,0,4.1,1.8,4.1,4.1v8.1
						C344.2,71.5,342.3,73.4,340.1,73.4z"/>
				</g>
			</g>
			<g>
				<g>
					<path class="st8" d="M340.1,42.1c-2.3,0-4.1-1.8-4.1-4.1v-8.1c0-2.2,1.8-4.1,4.1-4.1c2.3,0,4.1,1.8,4.1,4.1V38
						C344.2,40.3,342.3,42.1,340.1,42.1z"/>
				</g>
			</g>
		</g>
		<g>
			<g>
				<g>
					<path class="st8" d="M85.6,360.5h-8.1c-2.3,0-4.1-1.8-4.1-4.1s1.8-4.1,4.1-4.1h8.1c2.3,0,4.1,1.8,4.1,4.1
						S87.9,360.5,85.6,360.5z"/>
				</g>
			</g>
			<g>
				<g>
					<path class="st8" d="M54.4,360.5h-8.1c-2.3,0-4.1-1.8-4.1-4.1s1.8-4.1,4.1-4.1h8.1c2.2,0,4.1,1.8,4.1,4.1
						S56.6,360.5,54.4,360.5z"/>
				</g>
			</g>
			<g>
				<g>
					<path class="st8" d="M65.9,380.2c-2.3,0-4.1-1.8-4.1-4.1V368c0-2.3,1.8-4.1,4.1-4.1s4.1,1.8,4.1,4.1v8.1
						C70.1,378.4,68.2,380.2,65.9,380.2z"/>
				</g>
			</g>
			<g>
				<g>
					<path class="st8" d="M65.9,349c-2.3,0-4.1-1.8-4.1-4.1v-8.1c0-2.3,1.8-4.1,4.1-4.1s4.1,1.8,4.1,4.1v8.1
						C70.1,347.1,68.2,349,65.9,349z"/>
				</g>
			</g>
		</g>
		<g>
			<g>
				<circle class="st8" cx="243.5" cy="186.6" r="5.3"/>
			</g>
		</g>
	</g>
</g>
</svg>
