<svg xmlns="http://www.w3.org/2000/svg" xmlns:xlink="http://www.w3.org/1999/xlink" width="60" height="60" viewBox="0 0 60 60">
  <defs>
    <style>
      .cls-1 {
        clip-path: url(#clip-Mesa_de_trabajo_1);
      }

      .cls-2 {
        fill: #ff6e6e;
      }

      .cls-3 {
        fill: #fff;
      }
    </style>
    <clipPath id="clip-Mesa_de_trabajo_1">
      <rect width="60" height="60"/>
    </clipPath>
  </defs>
  <g id="Mesa_de_trabajo_1" data-name="Mesa de trabajo – 1" class="cls-1">
    <rect class="cls-3" width="60" height="60"/>
    <path id="Polígono_1" data-name="Polígono 1" class="cls-2" d="M28.4,4.532a3,3,0,0,1,5.2,0L59.42,49.506A3,3,0,0,1,56.819,54H5.181a3,3,0,0,1-2.6-4.494Z" transform="translate(-1 3)"/>
    <path id="Trazado_1" data-name="Trazado 1" class="cls-3" d="M1.467-14H7.531L6.507,5.176H2.45ZM4.5,14.969a3.26,3.26,0,0,1-2.377-.922,3.056,3.056,0,0,1-.942-2.274A2.99,2.99,0,0,1,2.122,9.52a3.3,3.3,0,0,1,2.377-.9,3.178,3.178,0,0,1,2.315.9,3.023,3.023,0,0,1,.922,2.254,3.09,3.09,0,0,1-.922,2.274A3.14,3.14,0,0,1,4.5,14.969Z" transform="translate(25.658 35.285)"/>
  </g>
</svg>
