<?xml version="1.0" encoding="utf-8"?>
<!-- Generator: Adobe Illustrator 25.4.1, SVG Export Plug-In . SVG Version: 6.00 Build 0)  -->
<svg version="1.1" id="Capa_1" xmlns="http://www.w3.org/2000/svg" xmlns:xlink="http://www.w3.org/1999/xlink" x="0px" y="0px"
	 viewBox="0 0 500 500" style="enable-background:new 0 0 500 500;" xml:space="preserve">
<style type="text/css">
	.st0{fill-rule:evenodd;clip-rule:evenodd;fill:#00A859;stroke:#373435;stroke-width:0.5669;stroke-miterlimit:10;}
	.st1{fill-rule:evenodd;clip-rule:evenodd;fill:#A98F71;}
	.st2{fill-rule:evenodd;clip-rule:evenodd;fill:#F8A25F;}
	.st3{fill-rule:evenodd;clip-rule:evenodd;fill:#FFF212;stroke:#373435;stroke-width:0.5669;stroke-miterlimit:10;}
	.st4{fill-rule:evenodd;clip-rule:evenodd;fill:#00AFEF;}
	.st5{fill-rule:evenodd;clip-rule:evenodd;fill:#FFF8AF;stroke:#373435;stroke-width:0.5669;stroke-miterlimit:10;}
	.st6{fill-rule:evenodd;clip-rule:evenodd;fill:#847059;}
	.st7{fill-rule:evenodd;clip-rule:evenodd;}
</style>
<g id="Capa_x0020_1">
	<g id="_2812950575792">
		<rect x="248.9" y="44.2" class="st0" width="53.8" height="40"/>
		<polygon class="st1" points="45.1,181.7 455.1,181.7 477.6,245.4 18.9,245.4 		"/>
		<polygon class="st2" points="35.1,249.2 126.6,249.2 250.1,127.9 379.7,244.8 468.9,244.8 470.1,455.4 35.1,455.4 		"/>
		<ellipse class="st3" cx="250.7" cy="261.8" rx="41.2" ry="40.9"/>
		<rect x="64.5" y="286.7" class="st4" width="102.5" height="43.1"/>
		<rect x="333.9" y="286.7" class="st4" width="102.5" height="43.1"/>
		<rect x="64.5" y="362.3" class="st4" width="102.5" height="43.1"/>
		<rect x="333.9" y="362.3" class="st4" width="102.5" height="43.1"/>
		<rect x="206.3" y="361.7" class="st5" width="91.2" height="63.7"/>
		<rect x="188.8" y="425.4" class="st6" width="120" height="28.7"/>
		<g>
			<g>
				<path class="st7" d="M483,449.6h-8V253.3h8c2.4,0,4.6-1.2,5.9-3.2c1.3-2,1.5-4.5,0.5-6.7l-30-67.6c-1.1-2.6-3.6-4.2-6.4-4.2
					H305.5L257,123.1V87.9h45.6c3.9,0,7-3.2,7-7V43.3c0-3.9-3.2-7-7-7H250c-3.9,0-7,3.2-7,7v79.8l-48.5,48.5H47.1
					c-2.8,0-5.3,1.6-6.4,4.2l-30,67.6c-1,2.2-0.8,4.7,0.5,6.7c1.3,2,3.5,3.2,5.9,3.2h8v196.4h-8c-3.9,0-7,3.2-7,7.1c0,3.9,3.2,7,7,7
					H483c3.9,0,7-3.2,7-7C490,452.8,486.8,449.6,483,449.6z M295.6,73.9H257V50.4h38.6V73.9z M51.7,185.7h128.8l-53.6,53.6h-99
					L51.7,185.7z M39.1,253.3h90.6c1.9,0,3.7-0.7,5-2.1L250,135.9l115.3,115.3c1.3,1.3,3.1,2.1,5,2.1h52.6c3.9,0,7.1-3.1,7.1-7
					s-3.2-7-7.1-7h-49.7l-53.6-53.6h128.8l23.8,53.6h-19.2c-3.9,0-7.1,3.1-7.1,7s3.2,7,7.1,7h8v196.4H317.1v-23c0-3.9-3.2-7-7-7h-8
					V359c0-3.9-3.2-7-7-7h-90.2c-3.9,0-7,3.2-7,7v60.6h-8c-3.9,0-7,3.2-7,7v23H39.1V253.3z M288.1,366v53.6h-31V366H288.1z
					 M243,419.6h-31V366h31V419.6z M303.1,433.6v16H196.9v-16H303.1z"/>
			</g>
			<g>
				<path class="st7" d="M250,313.4c28.7,0,52.1-23.4,52.1-52.1s-23.4-52.1-52.1-52.1s-52.1,23.4-52.1,52.1S221.3,313.4,250,313.4z
					 M250,223.2c21,0,38.1,17.1,38.1,38.1S271,299.3,250,299.3c-21,0-38.1-17.1-38.1-38.1S229,223.2,250,223.2z"/>
			</g>
			<g>
				<path class="st7" d="M250,283.3c3.9,0,7-3.2,7-7.1v-10.7l11.2-5.6c3.5-1.7,4.9-6,3.2-9.5s-6-4.9-9.5-3.1l-15,7.5
					c-2.4,1.2-3.9,3.6-3.9,6.3v15C243,280.2,246.1,283.3,250,283.3z"/>
			</g>
			<g>
				<path class="st7" d="M167.3,351.9H62.1c-3.9,0-7.1,3.2-7.1,7v45.1c0,3.9,3.2,7,7.1,7h15c3.9,0,7-3.1,7-7c0-3.9-3.1-7.1-7-7.1h-8
					v-31h38.6v31h-0.5c-3.9,0-7,3.2-7,7.1c0,3.9,3.2,7,7,7h60.1c3.9,0,7-3.1,7-7V359C174.4,355.1,171.2,351.9,167.3,351.9
					L167.3,351.9z M160.3,397h-38.6v-31h38.6V397z"/>
			</g>
			<g>
				<path class="st7" d="M167.3,276.8H62.1c-3.9,0-7.1,3.2-7.1,7v45.1c0,3.9,3.2,7,7.1,7h105.2c3.9,0,7-3.1,7-7v-45.1
					C174.4,279.9,171.2,276.8,167.3,276.8z M69.2,290.9h38.6v31H69.2V290.9z M160.3,321.9h-38.6v-31h38.6V321.9z"/>
			</g>
			<g>
				<path class="st7" d="M332.7,411.1h105.2c3.9,0,7.1-3.1,7.1-7V359c0-3.9-3.2-7-7.1-7H332.7c-3.9,0-7,3.2-7,7v45.1
					C325.6,408,328.8,411.1,332.7,411.1L332.7,411.1z M430.8,397h-38.6v-31h38.6V397z M339.7,366h38.6v31h-38.6V366z"/>
			</g>
			<g>
				<path class="st7" d="M332.7,335.9h105.2c3.9,0,7.1-3.1,7.1-7v-45.1c0-3.9-3.2-7-7.1-7H332.7c-3.9,0-7,3.2-7,7v45.1
					C325.6,332.8,328.8,335.9,332.7,335.9L332.7,335.9z M430.8,321.9h-38.6v-31h38.6V321.9z M339.7,290.9h38.6v31h-38.6V290.9z"/>
			</g>
		</g>
	</g>
</g>
</svg>
