<?xml version="1.0" encoding="utf-8"?>
<!-- Generator: Adobe Illustrator 25.4.5, SVG Export Plug-In . SVG Version: 6.00 Build 0)  -->
<svg version="1.1" id="Capa_1" xmlns="http://www.w3.org/2000/svg" xmlns:xlink="http://www.w3.org/1999/xlink" x="0px" y="0px"
	 viewBox="0 0 401.4 308" style="enable-background:new 0 0 401.4 308;" xml:space="preserve">
<style type="text/css">
	.st0{fill:#2E3191;}
	.st1{fill:#F48120;}
	.st2{fill:#D0D2D3;}
	.st3{fill:#A52A30;}
</style>
<g id="Capa_2_00000065060812514948364260000014961916728706696085_">
	<g id="Capa_1-2">
		<path class="st0" d="M30.3,242.4l8.8,3.4c-1.3,5.9-3.6,10.3-6.7,13.2c-3.3,2.9-7.5,4.5-11.9,4.3c-5.8,0.1-11.3-2.7-14.7-7.4
			C1.9,251,0,244.2,0,235.7c0-9,1.9-16,5.8-21c3.5-4.8,9.2-7.7,15.2-7.5c5.1-0.2,10,2,13.4,5.9c2,2.3,3.6,5.7,4.6,10l-9,2.6
			c-0.4-2.5-1.5-4.8-3.3-6.6c-1.6-1.6-3.8-2.5-6.1-2.4c-3.3,0-6.3,1.6-8.1,4.3c-2.1,2.9-3.1,7.6-3.1,14c0,6.9,1,11.7,3.1,14.7
			c1.7,2.7,4.8,4.4,8,4.4c2.4,0,4.6-1,6.2-2.8C28.3,249.3,29.6,246.4,30.3,242.4z"/>
		<path class="st0" d="M87.4,262.4h-9.9L73.6,250H55.7L52,262.4h-9.7l17.5-54.3h9.6L87.4,262.4z M70.7,240.9l-6.2-20.1l-6.1,20.1
			H70.7z"/>
		<path class="st0" d="M108.4,208.1h9v34.4c0.1,3.5-0.2,7-1,10.4c-0.8,3-2.4,5.6-4.8,7.6c-2.6,2-5.8,3-9.1,2.9
			c-4.4,0-7.8-1.5-10.2-4.5c-2.4-3-3.6-7.4-3.6-13.2l8.6-1.2c0.1,3.1,0.5,5.3,1.1,6.6c0.8,1.8,2.5,3,4.5,2.9
			c1.7,0.2,3.4-0.6,4.3-2.1c0.8-1.4,1.2-4.3,1.2-8.7V208.1z"/>
		<path class="st0" d="M167.6,262.4h-9.9l-3.9-12.4h-18l-3.7,12.3h-9.6l17.5-54.3h9.6L167.6,262.4z M150.9,240.9l-6.2-20.1
			l-6.1,20.1H150.9z"/>
		<path class="st0" d="M187.3,262.4v-54.3h9.1v54.3L187.3,262.4z"/>
		<path class="st0" d="M215.1,262.4v-45.1h-13.3v-9.2h35.7v9.2h-13.3v45.1H215.1z"/>
		<path class="st0" d="M239.4,262.4v-9.9l23.6-35.2h-20.9v-9.2H275v8.5l-24.6,36.6h25.5v9.1L239.4,262.4z"/>
		<path class="st0" d="M322.2,262.4h-9.9l-3.9-12.4h-18l-3.7,12.3h-9.6l17.5-54.3h9.6L322.2,262.4z M305.5,240.9l-6.2-20.1
			l-6.1,20.1H305.5z"/>
		<path class="st0" d="M327,262.4v-54.3h33.3v9.2H336v12h22.6v9.1H336v14.8h25.1v9.1L327,262.4z"/>
		<path class="st0" d="M365,262.4v-9.9l23.6-35.2h-21v-9.2h32.9v8.5l-24.6,36.6h25.5v9.1L365,262.4z"/>
		<path class="st0" d="M24.5,307.6h-5.1l-2-5.9H8.1l-1.9,5.9h-5l9-25.7h4.9L24.5,307.6z M15.8,297.4l-3.2-9.6l-3.1,9.6H15.8z"/>
		<path class="st0" d="M31.3,281.9v9.5c1.2-1.7,3.1-2.8,5.1-2.8c1,0,1.9,0.2,2.8,0.6c0.8,0.4,1.4,0.9,1.8,1.6
			c0.4,0.7,0.8,1.4,0.9,2.2c0.2,1.2,0.3,2.5,0.2,3.7v10.9h-4.5v-9.9c0.1-1.2,0-2.5-0.2-3.7c-0.2-0.5-0.5-0.9-0.9-1.3
			c-0.5-0.3-1-0.5-1.6-0.5c-1.5,0-2.8,0.9-3.2,2.4c-0.3,1.2-0.4,2.4-0.4,3.6v9.3h-4.4v-25.7H31.3z"/>
		<path class="st0" d="M45.7,298c0-1.6,0.4-3.3,1.1-4.8c0.7-1.5,1.7-2.7,3.1-3.5c1.3-0.8,2.9-1.2,4.5-1.2c2.4-0.1,4.7,0.9,6.2,2.8
			c1.7,1.9,2.5,4.4,2.4,7c0.1,2.6-0.8,5.1-2.5,7c-1.5,1.8-3.8,2.8-6.2,2.8c-1.5,0-3.1-0.4-4.4-1.2c-1.4-0.8-2.5-2-3.2-3.4
			C46,301.7,45.6,299.9,45.7,298z M50.2,298.3c-0.1,1.5,0.3,3,1.2,4.2c1.2,1.6,3.4,2,5.1,0.8c0.3-0.2,0.6-0.5,0.8-0.8
			c0.9-1.3,1.3-2.8,1.2-4.3c0.1-1.5-0.3-3-1.2-4.2c-1.2-1.6-3.4-2-5.1-0.8c-0.3,0.2-0.6,0.5-0.8,0.8
			C50.5,295.2,50.1,296.8,50.2,298.3L50.2,298.3z"/>
		<path class="st0" d="M70.7,307.6h-4.4V289h4.1v2.6c0.5-0.9,1.1-1.8,1.9-2.5c0.6-0.4,1.2-0.6,1.9-0.6c1,0,2.1,0.3,2.9,0.9l-1.4,4.3
			c-0.6-0.5-1.3-0.8-2.1-0.8c-0.6,0-1.1,0.2-1.6,0.6c-0.5,0.6-0.9,1.3-1,2.1c-0.3,2.1-0.4,4.2-0.4,6.2L70.7,307.6z"/>
		<path class="st0" d="M83.3,307.6h-4.4V289H83v2.6c0.5-0.9,1.1-1.8,1.9-2.5c0.6-0.4,1.2-0.6,1.9-0.6c1,0,2.1,0.3,2.9,0.9l-1.4,4.3
			c-0.6-0.5-1.3-0.8-2.1-0.8c-0.6,0-1.1,0.2-1.6,0.6c-0.5,0.6-0.9,1.3-1,2.1c-0.3,2.1-0.4,4.2-0.4,6.2L83.3,307.6z"/>
		<path class="st0" d="M90.6,298c0-1.6,0.4-3.3,1.1-4.8c0.7-1.5,1.7-2.7,3.1-3.5c1.3-0.8,2.9-1.2,4.5-1.2c2.4-0.1,4.7,0.9,6.2,2.8
			c1.7,1.9,2.5,4.4,2.4,6.9c0.1,2.6-0.8,5.1-2.5,7c-1.5,1.8-3.8,2.8-6.2,2.8c-1.5,0-3.1-0.4-4.4-1.2c-1.4-0.8-2.5-2-3.2-3.4
			C91,301.7,90.6,299.9,90.6,298z M95.2,298.3c-0.1,1.5,0.3,3,1.2,4.2c1.2,1.6,3.5,2,5.1,0.8c0.3-0.2,0.6-0.5,0.8-0.8
			c0.9-1.3,1.3-2.8,1.2-4.3c0.1-1.5-0.3-3-1.2-4.2c-1.2-1.6-3.5-2-5.1-0.8c-0.3,0.2-0.6,0.5-0.8,0.8
			C95.5,295.3,95.1,296.8,95.2,298.3L95.2,298.3z"/>
		<path class="st0" d="M144.3,298.1l4.5,1.6c-0.5,2.4-1.7,4.6-3.5,6.3c-1.7,1.4-3.9,2.1-6.2,2c-2.9,0.1-5.7-1.2-7.6-3.5
			c-2-2.3-3-5.5-3-9.6c0-4.3,1-7.6,3-10c1.9-2.3,4.8-3.7,7.9-3.6c2.6-0.1,5.1,0.9,6.9,2.8c1.2,1.3,2,3,2.4,4.7l-4.6,1.2
			c-0.2-1.2-0.8-2.3-1.7-3.2c-0.9-0.8-2-1.2-3.2-1.2c-1.6,0-3.2,0.7-4.2,2.1c-1.1,1.4-1.6,3.6-1.6,6.6c0,3.3,0.5,5.6,1.6,7
			c0.9,1.3,2.5,2.1,4.1,2.1c1.2,0,2.4-0.5,3.2-1.3C143.4,301.1,144.1,299.7,144.3,298.1z"/>
		<path class="st0" d="M157.1,307.6h-4.4V289h4.1v2.6c0.5-0.9,1.1-1.8,1.9-2.5c0.6-0.4,1.2-0.6,1.9-0.6c1,0,2.1,0.3,2.9,0.9
			l-1.4,4.3c-0.6-0.5-1.3-0.8-2.1-0.8c-0.6,0-1.1,0.2-1.6,0.6c-0.5,0.6-0.9,1.3-1,2.1c-0.3,2.1-0.4,4.2-0.4,6.2L157.1,307.6z"/>
		<path class="st0" d="M175.2,301.7l4.4,0.8c-0.4,1.6-1.4,3.1-2.7,4.1c-1.3,1-3,1.5-4.6,1.4c-2.6,0.2-5-1-6.5-3.2
			c-1.2-1.9-1.7-4.2-1.7-6.4c-0.2-2.6,0.6-5.2,2.2-7.3c1.3-1.7,3.4-2.7,5.5-2.6c2.3-0.1,4.5,0.9,5.9,2.8c1.4,1.8,2.1,4.6,2.1,8.4
			h-11.1c0,1.2,0.3,2.4,1.1,3.4c0.6,0.8,1.6,1.2,2.6,1.2c0.6,0,1.3-0.2,1.8-0.6C174.6,303.1,175,302.4,175.2,301.7z M175.4,296.7
			c0.1-1.2-0.3-2.3-1-3.3c-0.6-0.7-1.4-1.1-2.3-1.1c-0.9,0-1.8,0.4-2.4,1.2c-0.7,0.9-1,2.1-0.9,3.2L175.4,296.7z M169.7,286.7
			l2.2-5.2h5l-4.4,5.2H169.7z"/>
		<path class="st0" d="M198.9,307.6h-4.1v-2.7c-0.6,1-1.4,1.8-2.4,2.4c-0.9,0.5-1.8,0.8-2.8,0.8c-2,0-3.8-1-5-2.6
			c-1.5-2.1-2.2-4.6-2.1-7.2c0-3.2,0.7-5.6,2-7.2c1.2-1.6,3.1-2.5,5.1-2.5c1.9,0,3.8,1,4.9,2.6v-9.3h4.4L198.9,307.6z M187,297.9
			c-0.1,1.5,0.2,3,0.7,4.3c0.5,1.2,1.7,1.9,3,1.9c1.1,0,2-0.6,2.6-1.5c0.8-1.3,1.2-2.8,1.1-4.3c0.1-1.6-0.2-3.2-1-4.6
			c-1-1.5-3-1.8-4.5-0.8c-0.3,0.2-0.6,0.5-0.8,0.8C187.3,294.9,186.9,296.4,187,297.9z"/>
		<path class="st0" d="M203.2,286.4v-4.6h4.4v4.6H203.2z M203.2,307.6V289h4.4v18.6H203.2z"/>
		<path class="st0" d="M219.9,289v3.9h-3v7.5c0,0.9,0,1.8,0.1,2.7c0.1,0.2,0.2,0.5,0.4,0.6c0.2,0.2,0.5,0.3,0.8,0.2
			c0.6-0.1,1.2-0.2,1.8-0.5l0.4,3.8c-1.1,0.5-2.3,0.8-3.5,0.7c-0.7,0-1.5-0.1-2.2-0.5c-0.6-0.2-1.1-0.6-1.4-1.2
			c-0.3-0.6-0.6-1.2-0.6-1.9c-0.1-1.2-0.2-2.3-0.1-3.5v-8.1h-2V289h2v-3.7l4.5-2.9v6.6H219.9z"/>
		<path class="st0" d="M222,298c0-1.6,0.4-3.3,1.1-4.8c0.7-1.5,1.7-2.7,3.1-3.5c1.4-0.8,2.9-1.2,4.5-1.2c2.4-0.1,4.7,0.9,6.2,2.8
			c1.7,1.9,2.5,4.4,2.4,6.9c0.1,2.6-0.8,5.1-2.5,7c-1.5,1.8-3.8,2.8-6.2,2.8c-1.5,0-3.1-0.4-4.4-1.2c-1.4-0.8-2.5-2-3.2-3.4
			C222.3,301.7,222,299.9,222,298z M226.6,298.3c-0.1,1.5,0.3,3,1.2,4.2c0.7,0.9,1.8,1.5,2.9,1.5c1.2,0,2.2-0.5,2.9-1.5
			c0.9-1.3,1.3-2.8,1.2-4.3c0.1-1.5-0.3-3-1.2-4.2c-0.7-0.9-1.8-1.5-2.9-1.5c-1.2,0-2.2,0.5-2.9,1.5
			C226.9,295.3,226.4,296.8,226.6,298.3L226.6,298.3z"/>
		<path class="st0" d="M260.7,307.6v-25.7h4.7v25.7H260.7z"/>
		<path class="st0" d="M285.1,307.6h-4.5v-9.5c0.1-1.3,0-2.6-0.3-3.9c-0.2-0.5-0.5-1-0.9-1.4c-0.4-0.3-1-0.5-1.5-0.5
			c-0.7,0-1.5,0.2-2.1,0.7c-0.6,0.5-1.1,1.1-1.3,1.9c-0.3,1.4-0.4,2.8-0.3,4.3v8.5h-4.4V289h4.1v2.7c1.2-1.9,3.3-3.1,5.5-3.2
			c0.9,0,1.8,0.2,2.7,0.6c0.7,0.3,1.4,0.8,1.8,1.5c0.4,0.6,0.7,1.3,0.9,2.1c0.2,1.1,0.3,2.2,0.2,3.3L285.1,307.6z"/>
		<path class="st0" d="M294.2,307.6l-6.8-18.6h4.7l3.2,9.5l0.9,3.2c0.2-0.8,0.4-1.3,0.5-1.6c0.1-0.5,0.3-1,0.5-1.6l3.2-9.5h4.6
			l-6.7,18.6L294.2,307.6z"/>
		<path class="st0" d="M317.3,301.7l4.4,0.8c-0.4,1.6-1.4,3.1-2.7,4.1c-1.3,1-3,1.5-4.6,1.4c-2.6,0.2-5-1-6.5-3.2
			c-1.2-1.9-1.7-4.2-1.7-6.4c-0.2-2.6,0.6-5.2,2.2-7.3c1.3-1.7,3.4-2.7,5.5-2.6c2.3-0.1,4.5,0.9,5.9,2.8c1.4,1.8,2.1,4.6,2.1,8.4
			h-11.1c0,1.2,0.3,2.4,1.1,3.4c0.6,0.8,1.6,1.2,2.6,1.2c0.6,0,1.3-0.2,1.8-0.6C316.8,303.1,317.2,302.4,317.3,301.7z M317.5,296.7
			c0.1-1.2-0.3-2.3-1-3.3c-0.6-0.7-1.4-1.1-2.3-1.1c-0.9,0-1.8,0.4-2.4,1.2c-0.7,0.9-1,2.1-0.9,3.2L317.5,296.7z"/>
		<path class="st0" d="M329.8,307.6h-4.4V289h4.1v2.6c0.5-0.9,1.1-1.8,1.9-2.5c0.6-0.4,1.2-0.6,1.9-0.6c1,0,2.1,0.3,2.9,0.9
			l-1.4,4.3c-0.6-0.5-1.3-0.8-2.1-0.8c-0.6,0-1.1,0.2-1.6,0.6c-0.5,0.6-0.9,1.3-1,2.1c-0.3,2.1-0.4,4.2-0.4,6.2L329.8,307.6z"/>
		<path class="st0" d="M336.6,302.3l4.5-0.8c0.1,0.8,0.5,1.6,1.2,2.2c0.7,0.5,1.6,0.8,2.4,0.8c0.9,0.1,1.8-0.2,2.6-0.7
			c0.4-0.3,0.6-0.8,0.6-1.3c0-0.3-0.1-0.7-0.3-0.9c-0.4-0.3-0.9-0.6-1.5-0.6c-3.6-0.9-5.9-1.7-6.8-2.4c-1.3-1-2.1-2.5-2-4.2
			c0-1.5,0.6-3,1.7-4.1c1.2-1.1,2.9-1.6,5.4-1.6c1.8-0.1,3.6,0.3,5.1,1.2c1.2,0.9,2,2.2,2.3,3.7l-4.2,0.9c-0.1-0.7-0.5-1.2-1-1.7
			c-0.6-0.4-1.4-0.6-2.1-0.6c-0.9-0.1-1.8,0.1-2.5,0.5c-0.3,0.2-0.5,0.6-0.5,1c0,0.4,0.2,0.7,0.4,0.9c1.3,0.7,2.7,1.1,4.1,1.4
			c1.8,0.3,3.5,1.1,5,2.2c1,1,1.5,2.3,1.4,3.7c0,1.7-0.7,3.3-1.9,4.4c-1.6,1.3-3.6,2-5.7,1.8c-1.9,0.1-3.8-0.4-5.4-1.5
			C337.9,305.4,337,304,336.6,302.3z"/>
		<path class="st0" d="M356.2,286.4v-4.6h4.4v4.6H356.2z M356.2,307.6V289h4.4v18.6H356.2z"/>
		<path class="st0" d="M364.2,298c0-1.6,0.4-3.3,1.1-4.8c0.7-1.5,1.7-2.7,3.1-3.5c1.3-0.8,2.9-1.2,4.5-1.2c2.4-0.1,4.7,0.9,6.2,2.8
			c1.7,1.9,2.5,4.4,2.4,6.9c0.1,2.6-0.8,5.1-2.5,7c-1.5,1.8-3.8,2.8-6.2,2.8c-1.5,0-3.1-0.4-4.4-1.2c-1.4-0.8-2.5-2-3.2-3.4
			C364.5,301.7,364.1,299.9,364.2,298z M368.7,298.3c-0.1,1.5,0.3,3,1.2,4.2c1.2,1.6,3.4,2,5.1,0.8c0.3-0.2,0.6-0.5,0.8-0.8
			c0.9-1.3,1.3-2.8,1.2-4.3c0.1-1.5-0.3-3-1.2-4.2c-1.2-1.6-3.4-2-5.1-0.8c-0.3,0.2-0.6,0.5-0.8,0.8
			C369,295.3,368.6,296.8,368.7,298.3L368.7,298.3z M370.6,286.7l2.2-5.2h5l-4.4,5.2H370.6z"/>
		<path class="st0" d="M400.2,307.6h-4.4v-9.5c0.1-1.3,0-2.6-0.3-3.9c-0.2-0.5-0.5-1-0.9-1.4c-0.4-0.3-1-0.5-1.5-0.5
			c-0.7,0-1.5,0.2-2.1,0.7c-0.6,0.5-1.1,1.1-1.3,1.9c-0.3,1.4-0.4,2.8-0.3,4.3v8.5H385V289h4.1v2.7c1.2-1.9,3.3-3.1,5.5-3.2
			c0.9,0,1.8,0.2,2.7,0.6c0.7,0.3,1.4,0.8,1.8,1.5c0.4,0.6,0.7,1.3,0.9,2.1c0.2,1.1,0.3,2.2,0.2,3.3L400.2,307.6z"/>
		<rect x="172.3" y="0.1" class="st1" width="56.8" height="57.2"/>
		<rect x="107.8" y="64.9" class="st0" width="56.8" height="57.2"/>
		<rect x="172.3" y="64.9" class="st2" width="56.8" height="57.2"/>
		<rect x="236.8" y="64.9" class="st0" width="56.8" height="57.2"/>
		<rect x="236.8" y="129.8" class="st0" width="56.8" height="57.2"/>
		<rect x="301.2" y="129.8" class="st0" width="56.8" height="57.2"/>
		<rect x="107.8" y="129.8" class="st0" width="56.8" height="57.2"/>
		<rect x="43.3" y="129.8" class="st0" width="56.8" height="57.2"/>
		<rect x="172.3" y="129.8" class="st3" width="56.8" height="57.2"/>
	</g>
</g>
</svg>
