<svg id="Capa_1" data-name="Capa 1" xmlns="http://www.w3.org/2000/svg" viewBox="0 0 643.22 131.53"><defs><style>.cls-1{fill:#f48120;}.cls-2{fill:#2e3191;}.cls-3{fill:#d0d2d3;}.cls-4{fill:#a52a30;}</style></defs><rect class="cls-1" x="89.1" y="5.37" width="36.71" height="36.97"/><rect class="cls-2" x="47.42" y="47.25" width="36.71" height="36.97"/><rect class="cls-3" x="89.1" y="47.25" width="36.71" height="36.97"/><rect class="cls-2" x="130.79" y="47.25" width="36.71" height="36.97"/><rect class="cls-2" x="130.79" y="89.19" width="36.71" height="36.97"/><rect class="cls-2" x="172.41" y="89.19" width="36.71" height="36.97"/><rect class="cls-2" x="47.42" y="89.19" width="36.71" height="36.97"/><rect class="cls-2" x="5.73" y="89.19" width="36.71" height="36.97"/><rect class="cls-4" x="89.1" y="89.19" width="36.71" height="36.97"/><path class="cls-2" d="M266.39,53.94l8.8,3.4c-1.3,5.9-3.6,10.3-6.7,13.2a16.82,16.82,0,0,1-11.9,4.3,17.82,17.82,0,0,1-14.7-7.4c-3.9-4.9-5.8-11.7-5.8-20.2,0-9,1.9-16,5.8-21a18.19,18.19,0,0,1,15.2-7.5,16.9,16.9,0,0,1,13.4,5.9,23.29,23.29,0,0,1,4.6,10l-9,2.6a11.89,11.89,0,0,0-3.3-6.6,8.14,8.14,0,0,0-6.1-2.4,9.65,9.65,0,0,0-8.1,4.3c-2.1,2.9-3.1,7.6-3.1,14,0,6.9,1,11.7,3.1,14.7a9.59,9.59,0,0,0,8,4.4,8.19,8.19,0,0,0,6.2-2.8A19.43,19.43,0,0,0,266.39,53.94Z"/><path class="cls-2" d="M323.49,73.94h-9.9l-3.9-12.4h-17.9l-3.7,12.4h-9.7l17.5-54.3h9.6Zm-16.7-21.5-6.2-20.1-6.1,20.1Z"/><path class="cls-2" d="M344.49,19.64h9V54a40.4,40.4,0,0,1-1,10.4,14.63,14.63,0,0,1-4.8,7.6,14.15,14.15,0,0,1-9.1,2.9q-6.6,0-10.2-4.5t-3.6-13.2l8.6-1.2a18.31,18.31,0,0,0,1.1,6.6,4.67,4.67,0,0,0,4.5,2.9,4.43,4.43,0,0,0,4.3-2.1q1.2-2.1,1.2-8.7Z"/><path class="cls-2" d="M403.69,73.94h-9.9l-3.9-12.4h-18l-3.7,12.3h-9.6l17.5-54.3h9.6ZM387,52.44l-6.2-20.1-6.1,20.1Z"/><path class="cls-2" d="M423.39,73.94V19.64h9.1v54.3Z"/><path class="cls-2" d="M451.19,73.94V28.84h-13.3v-9.2h35.7v9.2h-13.3v45.1Z"/><path class="cls-2" d="M475.49,73.94V64l23.6-35.2h-20.9V19.6h32.9v8.5l-24.6,36.6H512v9.1Z"/><path class="cls-2" d="M558.29,73.94h-9.9l-3.9-12.4h-18l-3.7,12.3h-9.6l17.5-54.3h9.6Zm-16.7-21.5-6.2-20.1-6.1,20.1Z"/><path class="cls-2" d="M563.09,73.94V19.64h33.3v9.2h-24.3v12h22.6v9.1h-22.6v14.8h25.1v9.1Z"/><path class="cls-2" d="M601.09,73.94V64l23.6-35.2h-21V19.6h32.9v8.5L612,64.74h25.5v9.1Z"/><path class="cls-2" d="M260.59,112.27h-5.1l-2-5.9h-9.3l-1.9,5.9h-5l9-25.7h4.9Zm-8.7-10.2-3.2-9.6-3.1,9.6Z"/><path class="cls-2" d="M267.39,86.57v9.5a6.38,6.38,0,0,1,5.1-2.8,6.74,6.74,0,0,1,2.8.6,4,4,0,0,1,1.8,1.6,6.06,6.06,0,0,1,.9,2.2,15.28,15.28,0,0,1,.2,3.7v10.9h-4.5v-9.9a15.28,15.28,0,0,0-.2-3.7,3.89,3.89,0,0,0-.9-1.3,2.94,2.94,0,0,0-1.6-.5,3.22,3.22,0,0,0-3.2,2.4,14.56,14.56,0,0,0-.4,3.6v9.3H263V86.47h4.4Z"/><path class="cls-2" d="M281.79,102.67a11.55,11.55,0,0,1,1.1-4.8,7.58,7.58,0,0,1,3.1-3.5,8.68,8.68,0,0,1,4.5-1.2,7.43,7.43,0,0,1,6.2,2.8,11.23,11.23,0,0,1-.1,14,8,8,0,0,1-6.2,2.8,8.51,8.51,0,0,1-4.4-1.2,8.07,8.07,0,0,1-3.2-3.4A13,13,0,0,1,281.79,102.67Zm4.5.3a6.3,6.3,0,0,0,1.2,4.2,3.67,3.67,0,0,0,5.1.8,2.9,2.9,0,0,0,.8-.8,6.71,6.71,0,0,0,1.2-4.3,6.3,6.3,0,0,0-1.2-4.2,3.67,3.67,0,0,0-5.1-.8,3,3,0,0,0-.8.8A6.54,6.54,0,0,0,286.29,103Z"/><path class="cls-2" d="M306.79,112.27h-4.4V93.67h4.1v2.6a9.3,9.3,0,0,1,1.9-2.5,3.32,3.32,0,0,1,1.9-.6,5,5,0,0,1,2.9.9l-1.4,4.3a3.25,3.25,0,0,0-2.1-.8,2.41,2.41,0,0,0-1.6.6,4.08,4.08,0,0,0-1,2.1,44.32,44.32,0,0,0-.4,6.2Z"/><path class="cls-2" d="M319.39,112.27H315V93.67h4.1v2.6a9.3,9.3,0,0,1,1.9-2.5,3.32,3.32,0,0,1,1.9-.6,5,5,0,0,1,2.9.9l-1.4,4.3a3.25,3.25,0,0,0-2.1-.8,2.41,2.41,0,0,0-1.6.6,4.08,4.08,0,0,0-1,2.1,44.32,44.32,0,0,0-.4,6.2Z"/><path class="cls-2" d="M326.69,102.67a11.55,11.55,0,0,1,1.1-4.8,7.58,7.58,0,0,1,3.1-3.5,8.68,8.68,0,0,1,4.5-1.2,7.43,7.43,0,0,1,6.2,2.8,9.7,9.7,0,0,1,2.4,6.9,9.89,9.89,0,0,1-2.5,7,8,8,0,0,1-6.2,2.8,8.51,8.51,0,0,1-4.4-1.2,8.07,8.07,0,0,1-3.2-3.4A16.08,16.08,0,0,1,326.69,102.67Zm4.6.3a6.3,6.3,0,0,0,1.2,4.2,3.67,3.67,0,0,0,5.1.8,2.9,2.9,0,0,0,.8-.8,6.71,6.71,0,0,0,1.2-4.3,6.3,6.3,0,0,0-1.2-4.2,3.67,3.67,0,0,0-5.1-.8,3,3,0,0,0-.8.8A6.71,6.71,0,0,0,331.29,103Z"/><path class="cls-2" d="M380.39,102.77l4.5,1.6a12,12,0,0,1-3.5,6.3,9.11,9.11,0,0,1-6.2,2,9.46,9.46,0,0,1-7.6-3.5q-3-3.45-3-9.6c0-4.3,1-7.6,3-10a9.87,9.87,0,0,1,7.9-3.6,9,9,0,0,1,6.9,2.8,10.55,10.55,0,0,1,2.4,4.7l-4.6,1.2a5.9,5.9,0,0,0-1.7-3.2,4.72,4.72,0,0,0-3.2-1.2,5.12,5.12,0,0,0-4.2,2.1c-1.1,1.4-1.6,3.6-1.6,6.6,0,3.3.5,5.6,1.6,7a5.06,5.06,0,0,0,4.1,2.1,4.62,4.62,0,0,0,3.2-1.3A6.36,6.36,0,0,0,380.39,102.77Z"/><path class="cls-2" d="M393.19,112.27h-4.4V93.67h4.1v2.6a9.3,9.3,0,0,1,1.9-2.5,3.32,3.32,0,0,1,1.9-.6,5,5,0,0,1,2.9.9l-1.4,4.3a3.25,3.25,0,0,0-2.1-.8,2.41,2.41,0,0,0-1.6.6,4.08,4.08,0,0,0-1,2.1,44.32,44.32,0,0,0-.4,6.2Z"/><path class="cls-2" d="M411.29,106.37l4.4.8a7.57,7.57,0,0,1-2.7,4.1,7,7,0,0,1-4.6,1.4,7.12,7.12,0,0,1-6.5-3.2,12,12,0,0,1-1.7-6.4,10.71,10.71,0,0,1,2.2-7.3,6.6,6.6,0,0,1,5.5-2.6,6.87,6.87,0,0,1,5.9,2.8q2.1,2.7,2.1,8.4h-11.1a5.27,5.27,0,0,0,1.1,3.4,3.22,3.22,0,0,0,2.6,1.2,3,3,0,0,0,1.8-.6A7.5,7.5,0,0,0,411.29,106.37Zm.2-5a5,5,0,0,0-1-3.3,3,3,0,0,0-4.22-.4,3.24,3.24,0,0,0-.48.5,4.59,4.59,0,0,0-.9,3.2Zm-5.7-10,2.2-5.2h5l-4.4,5.2Z"/><path class="cls-2" d="M435,112.27h-4.1v-2.7a6.89,6.89,0,0,1-2.4,2.4,5.64,5.64,0,0,1-2.8.8,6.25,6.25,0,0,1-5-2.6,11.56,11.56,0,0,1-2.1-7.2c0-3.2.7-5.6,2-7.2a6.33,6.33,0,0,1,5.1-2.5,6.07,6.07,0,0,1,4.9,2.6v-9.3H435Zm-11.9-9.7a10.19,10.19,0,0,0,.7,4.3,3.2,3.2,0,0,0,3,1.9,3.11,3.11,0,0,0,2.6-1.5,7.32,7.32,0,0,0,1.1-4.3,8.18,8.18,0,0,0-1-4.6,3.21,3.21,0,0,0-4.46-.83l0,0a3,3,0,0,0-.8.8,6.79,6.79,0,0,0-1.11,4.2Z"/><path class="cls-2" d="M439.29,91.07v-4.6h4.4v4.6Zm0,21.2V93.67h4.4v18.6Z"/><path class="cls-2" d="M456,93.67v3.9h-3v7.5a24.37,24.37,0,0,0,.1,2.7c.1.2.2.5.4.6a.79.79,0,0,0,.8.2,6,6,0,0,0,1.8-.5l.4,3.8a7.06,7.06,0,0,1-3.5.7,4.44,4.44,0,0,1-2.2-.5,2.35,2.35,0,0,1-1.4-1.2,4.28,4.28,0,0,1-.6-1.9,20.45,20.45,0,0,1-.1-3.5v-8.1h-2v-3.7h2V90l4.5-2.9v6.6Z"/><path class="cls-2" d="M458.09,102.67a11.55,11.55,0,0,1,1.1-4.8,7.58,7.58,0,0,1,3.1-3.5,8.9,8.9,0,0,1,4.5-1.2A7.44,7.44,0,0,1,473,96a9.7,9.7,0,0,1,2.4,6.9,9.89,9.89,0,0,1-2.5,7,8,8,0,0,1-6.2,2.8,8.51,8.51,0,0,1-4.4-1.2,8.07,8.07,0,0,1-3.2-3.4A14,14,0,0,1,458.09,102.67Zm4.6.3a6.3,6.3,0,0,0,1.2,4.2,3.81,3.81,0,0,0,2.9,1.5,3.4,3.4,0,0,0,2.9-1.5,6.71,6.71,0,0,0,1.2-4.3,6.3,6.3,0,0,0-1.2-4.2,3.81,3.81,0,0,0-2.9-1.5,3.4,3.4,0,0,0-2.9,1.5A6.19,6.19,0,0,0,462.69,103Z"/><path class="cls-2" d="M496.79,112.27V86.57h4.7v25.7Z"/><path class="cls-2" d="M521.19,112.27h-4.5v-9.5a12.79,12.79,0,0,0-.3-3.9,4.15,4.15,0,0,0-.9-1.4A2.74,2.74,0,0,0,514,97a3.32,3.32,0,0,0-2.1.7,3.65,3.65,0,0,0-1.3,1.9,15.52,15.52,0,0,0-.3,4.3v8.5h-4.4V93.67H510v2.7a7,7,0,0,1,5.5-3.2,6.64,6.64,0,0,1,2.7.6,3.78,3.78,0,0,1,1.8,1.5,6.64,6.64,0,0,1,.9,2.1,12.2,12.2,0,0,1,.2,3.3Z"/><path class="cls-2" d="M530.29,112.27l-6.8-18.6h4.7l3.2,9.5.9,3.2c.14-.54.31-1.08.5-1.6a14.82,14.82,0,0,1,.5-1.6l3.2-9.5h4.6l-6.7,18.6Z"/><path class="cls-2" d="M553.39,106.37l4.4.8a7.57,7.57,0,0,1-2.7,4.1,7,7,0,0,1-4.6,1.4,7.12,7.12,0,0,1-6.5-3.2,12,12,0,0,1-1.7-6.4,10.71,10.71,0,0,1,2.2-7.3,6.6,6.6,0,0,1,5.5-2.6,6.87,6.87,0,0,1,5.9,2.8q2.1,2.7,2.1,8.4h-11.1a5.27,5.27,0,0,0,1.1,3.4,3.22,3.22,0,0,0,2.6,1.2,3,3,0,0,0,1.8-.6A4.22,4.22,0,0,0,553.39,106.37Zm.2-5a5,5,0,0,0-1-3.3,3,3,0,0,0-4.22-.4,3.24,3.24,0,0,0-.48.5,4.59,4.59,0,0,0-.9,3.2Z"/><path class="cls-2" d="M565.89,112.27h-4.4V93.67h4.1v2.6a9.3,9.3,0,0,1,1.9-2.5,3.32,3.32,0,0,1,1.9-.6,5,5,0,0,1,2.9.9l-1.4,4.3a3.25,3.25,0,0,0-2.1-.8,2.41,2.41,0,0,0-1.6.6,4.08,4.08,0,0,0-1,2.1,44.32,44.32,0,0,0-.4,6.2Z"/><path class="cls-2" d="M572.69,107l4.5-.8a3.46,3.46,0,0,0,1.2,2.2,4.31,4.31,0,0,0,2.4.8,4.07,4.07,0,0,0,2.6-.7,1.64,1.64,0,0,0,.6-1.3,1.4,1.4,0,0,0-.3-.9,2.52,2.52,0,0,0-1.5-.6c-3.6-.9-5.9-1.7-6.8-2.4a4.9,4.9,0,0,1-2-4.2,5.79,5.79,0,0,1,1.7-4.1c1.2-1.1,2.9-1.6,5.4-1.6a9,9,0,0,1,5.1,1.2,6,6,0,0,1,2.3,3.7l-4.2.9a3,3,0,0,0-1-1.7,4,4,0,0,0-2.1-.6,4.18,4.18,0,0,0-2.5.5,1.23,1.23,0,0,0-.5,1,1.27,1.27,0,0,0,.4.9,15.18,15.18,0,0,0,4.1,1.4,11.8,11.8,0,0,1,5,2.2,4.7,4.7,0,0,1,1.4,3.7,6,6,0,0,1-1.9,4.4,7.83,7.83,0,0,1-5.7,1.8,8.71,8.71,0,0,1-5.4-1.5A7.5,7.5,0,0,1,572.69,107Z"/><path class="cls-2" d="M592.29,91.07v-4.6h4.4v4.6Zm0,21.2V93.67h4.4v18.6Z"/><path class="cls-2" d="M600.29,102.67a11.55,11.55,0,0,1,1.1-4.8,7.58,7.58,0,0,1,3.1-3.5,8.68,8.68,0,0,1,4.5-1.2,7.45,7.45,0,0,1,6.2,2.8,9.7,9.7,0,0,1,2.4,6.9,9.89,9.89,0,0,1-2.5,7,8,8,0,0,1-6.2,2.8,8.51,8.51,0,0,1-4.4-1.2,8.07,8.07,0,0,1-3.2-3.4A12.36,12.36,0,0,1,600.29,102.67Zm4.5.3a6.3,6.3,0,0,0,1.2,4.2,3.67,3.67,0,0,0,5.1.8,3,3,0,0,0,.8-.8,6.71,6.71,0,0,0,1.2-4.3,6.3,6.3,0,0,0-1.2-4.2,3.67,3.67,0,0,0-5.1-.8,2.9,2.9,0,0,0-.8.8A6.71,6.71,0,0,0,604.79,103Zm1.9-11.6,2.2-5.2h5l-4.4,5.2Z"/><path class="cls-2" d="M636.29,112.27h-4.4v-9.5a12.79,12.79,0,0,0-.3-3.9,4.15,4.15,0,0,0-.9-1.4,2.69,2.69,0,0,0-1.5-.5,3.32,3.32,0,0,0-2.1.7,3.65,3.65,0,0,0-1.3,1.9,15.52,15.52,0,0,0-.3,4.3v8.5h-4.4V93.67h4.1v2.7a7,7,0,0,1,5.5-3.2,6.64,6.64,0,0,1,2.7.6,3.78,3.78,0,0,1,1.8,1.5,6.64,6.64,0,0,1,.9,2.1,12.2,12.2,0,0,1,.2,3.3Z"/></svg>