<?xml version="1.0" encoding="utf-8"?>
<!-- Generator: Adobe Illustrator 25.4.1, SVG Export Plug-In . SVG Version: 6.00 Build 0)  -->
<svg version="1.1" id="Capa_1" xmlns="http://www.w3.org/2000/svg" xmlns:xlink="http://www.w3.org/1999/xlink" x="0px" y="0px"
	 viewBox="0 0 500 500" style="enable-background:new 0 0 500 500;" xml:space="preserve">
<style type="text/css">
	.st0{fill-rule:evenodd;clip-rule:evenodd;fill:#3E4095;stroke:#373435;stroke-width:0.5669;stroke-miterlimit:10;}
	.st1{fill-rule:evenodd;clip-rule:evenodd;fill:#86C44C;}
	.st2{fill-rule:evenodd;clip-rule:evenodd;}
</style>
<g id="Capa_x0020_1">
	<path class="st0" d="M404.9,181.8c-2.7,23-9.9,42.7-17.1,46.8c-8.2,4.7-27.3,5.6-41.5-4.9c-14.3-10.4-19.1-29.3-13.8-54.4l0,0
		c0.5-2.5,2.3-4.7,4.8-5.8c35-16,55.1-21.3,62.6-21.3c1.1,0,2,0.1,2.5,0.3C404.7,145,407.7,158.6,404.9,181.8z"/>
	<path class="st0" d="M146.1,124.3h160.3c-2.9,16.3-10.7,31.5-22.6,43.4c-8.6,8.6-18.7,14.9-29.4,18.8c-18.6-2.6-37.6-2.6-56.2,0
		c-10.7-3.9-20.8-10.2-29.4-18.8C156.8,155.7,149,140.7,146.1,124.3z"/>
	<path class="st0" d="M149.8,167.2c2.7,3.6,5.7,7.1,9,10.4c5.2,5.2,10.8,9.6,16.8,13.4l0,0c-4.3,1.1-8.6,2.4-12.9,3.8
		c-3.7,1.2-5.6,5.2-4.4,8.8c1.2,3.7,5.2,5.6,8.8,4.4c38.1-12.7,80.1-12.7,118.2,0c0.7,0.2,1.5,0.4,2.2,0.4c2.9,0,5.6-1.8,6.6-4.8
		c1.2-3.6-0.8-7.6-4.4-8.8c-4.3-1.4-8.6-2.7-12.9-3.8l0,0c6-3.8,11.6-8.2,16.8-13.4c4.6-4.6,8.6-9.6,12.2-15
		c1.9,0.4,3.8,0.8,5.7,1.2c2.5,0.6,5,1.1,7.5,1.8c-0.1,0.3-0.2,0.6-0.2,0.9c-3.4,16.2-3.2,30.5,0.7,42.5
		c3.4,10.8,9.7,19.6,18.5,26.1c10.4,7.6,23,10.9,34.4,10.9c8.6,0,16.5-1.9,22.3-5.1c6.6-3.7,12.1-11.6,16.4-23.3
		c2,2.3,3.9,4.8,5.7,7.2c7.3,10,12.9,21,16.5,32.7c2.2,6.9,7.5,12.3,14.4,14.5l19.7,6.3c5.2,1.6,8.6,6.4,8.6,11.8v32.6
		c0,5.4-3.5,10.2-8.6,11.8l-31.7,10.1c-5.1,1.6-9.4,5.1-12.1,9.8c-12.5,21.5-32,39.3-58.2,52.9c-3,1.6-5.1,4.4-5.8,7.7l-10.1,53.7
		c-0.3,1.5-1.6,2.6-3.1,2.6h-33c-1.5,0-2.8-1.1-3.1-2.6l-5.6-29.7c-1.1-5.8-6.6-9.7-12.5-8.8c-14.2,2.2-28.9,3.2-43.5,3.2
		c-10.9,0-21.7-0.6-32-1.8c-5.7-0.7-11,3.2-12.1,8.9l-5.3,28.2c-0.3,1.5-1.6,2.6-3.1,2.6h-33c-1.5,0-2.8-1.1-3.1-2.6l-9.8-50.7
		c-0.6-3.3-2.7-6-5.6-7.6c-44.6-23.8-68.1-63.6-68.1-115c0-26,5.7-49,16.9-68.3c10.4-18,25.7-32.9,45.4-44.3
		c3.3-1.9,4.5-6.2,2.6-9.5c-0.2-0.3-0.4-0.6-0.6-0.9C143.8,170.6,146.8,168.9,149.8,167.2z"/>
	<ellipse class="st1" cx="226.1" cy="109.8" rx="86.8" ry="84.9"/>
	<g id="_2113792362752">
		<g>
			<path class="st2" d="M406.1,263.7c-3.8,0-7,3.1-7,7c0,4.9-4,8.9-8.9,8.9s-8.9-4-8.9-8.9c0-3.8-3.1-7-7-7c-3.9,0-7,3.1-7,7
				c0,12.6,10.2,22.9,22.8,22.9c12.6,0,22.8-10.2,22.8-22.9C413.1,266.8,410,263.7,406.1,263.7z"/>
		</g>
	</g>
	<path class="st2" d="M471.7,264.9l-19.7-6.3c-2.5-0.8-4.5-2.8-5.3-5.4c-4.1-13.2-10.4-25.5-18.6-36.8c-3.7-5.1-7.9-10-12.4-14.7
		c2.9-12.7,4.5-27.1,4.3-39.6c-0.3-17.8-3.8-28.2-10.9-31.9c-3.8-2-15.3-8-77.6,20.5c-1.5,0.7-2.8,1.5-4.1,2.5
		c-4.2-1.1-8.5-2.2-12.8-3.1c-0.5-0.1-1-0.2-1.6-0.3c5-11,8-23,8.6-35.4c0.2-3.8-2.8-7.1-6.7-7.3c-3.8-0.2-7.1,2.8-7.3,6.7
		c-0.9,20.3-9.4,39.5-23.8,53.9c-8.6,8.6-18.7,14.9-29.4,18.8c-18.6-2.6-37.6-2.6-56.2,0c-10.7-3.9-20.8-10.2-29.4-18.8
		c-15.4-15.4-23.8-35.8-23.8-57.5c0-21.7,8.5-42.2,23.8-57.5c15.4-15.4,35.8-23.8,57.5-23.8c21.7,0,42.2,8.5,57.5,23.8
		c6.2,6.2,11.3,13.2,15.2,20.9c1.7,3.4,5.9,4.8,9.4,3.1c3.4-1.7,4.8-5.9,3.1-9.4c-4.6-9.1-10.5-17.3-17.8-24.5
		c-18-18-42-27.9-67.4-27.9c-25.5,0-49.4,9.9-67.4,27.9s-27.9,42-27.9,67.4c0,25.5,9.9,49.4,27.9,67.4c5.2,5.2,10.8,9.6,16.8,13.4
		l0,0c-4.3,1.1-8.6,2.4-12.9,3.8c-3.7,1.2-5.6,5.2-4.4,8.8c1.2,3.7,5.2,5.6,8.8,4.4c38.1-12.7,80.1-12.7,118.2,0
		c0.7,0.2,1.5,0.4,2.2,0.4c2.9,0,5.6-1.8,6.6-4.8c1.2-3.6-0.8-7.6-4.4-8.8c-4.3-1.4-8.6-2.7-12.9-3.8l0,0c6-3.8,11.6-8.2,16.8-13.4
		c4.6-4.6,8.6-9.6,12.2-15c1.9,0.4,3.8,0.8,5.7,1.2c2.5,0.6,5,1.1,7.5,1.8c-0.1,0.3-0.2,0.6-0.2,0.9c-3.4,16.2-3.2,30.5,0.7,42.5
		c3.4,10.8,9.7,19.6,18.5,26.1c10.4,7.6,23,10.9,34.4,10.9c8.6,0,16.5-1.9,22.3-5.1c6.6-3.7,12.1-11.6,16.4-23.3
		c2,2.3,3.9,4.8,5.7,7.2c7.3,10,12.9,21,16.5,32.7c2.2,6.9,7.5,12.3,14.4,14.5l19.7,6.3c5.2,1.6,8.6,6.4,8.6,11.8v32.6
		c0,5.4-3.5,10.2-8.6,11.8l-31.7,10.1c-5.1,1.6-9.4,5.1-12.1,9.8c-12.5,21.5-32,39.3-58.2,52.9c-3,1.6-5.1,4.4-5.8,7.7l-10.1,53.7
		c-0.3,1.5-1.6,2.6-3.1,2.6h-33c-1.5,0-2.8-1.1-3.1-2.6l-5.6-29.7c-1.1-5.8-6.6-9.7-12.5-8.8c-14.2,2.2-28.9,3.2-43.5,3.2
		c-10.9,0-21.7-0.6-32-1.8c-5.7-0.7-11,3.2-12.1,8.9l-5.3,28.2c-0.3,1.5-1.6,2.6-3.1,2.6h-33c-1.5,0-2.8-1.1-3.1-2.6l-9.8-50.7
		c-0.6-3.3-2.7-6-5.6-7.6c-44.6-23.8-68.1-63.6-68.1-115c0-26,5.7-49,16.9-68.3c10.4-18,25.7-32.9,45.4-44.3
		c3.3-1.9,4.5-6.2,2.6-9.5c-1.9-3.3-6.2-4.5-9.6-2.6c-38.1,22.1-61.1,56.1-67.5,99.3l0,0c-0.7-0.1-1.3-0.1-2-0.2
		c0.1-4.7-0.7-9.4-2.6-13.9c-4.1-10.1-12.4-17.3-21.2-18.5c-7-0.9-13.6,2-18.2,8.1c-6.7,8.8-5.6,15.8-3.5,20.1
		c3.5,7.2,12.6,12.4,27.6,15.6c-0.4,0.6-0.9,1.2-1.4,1.9c-8.9,11.1-19.3,13.6-26.1,13.8c-4,0.1-7.2,3.3-7.2,7.3v0
		c0,3.9,3.1,7.1,7,7.3c0.5,0,1,0,1.6,0c8.6,0,22.4-3.2,35.6-19.8c2.1-2.6,3.8-5.4,5.1-8.2c1.3,0.2,2.6,0.3,3.8,0.4l0,0
		c-0.2,3.8-0.4,7.6-0.4,11.5c0,29.1,6.9,55,20.6,77.1c12.6,20.3,30.7,37,53.7,49.5l9.5,49.3c1.5,8.1,8.6,13.9,16.8,13.9h33
		c8.2,0,15.3-5.8,16.8-13.9l4.8-25.5c10,1.1,20.4,1.6,30.9,1.6c14.4,0,28.8-1,42.8-3l5.1,26.9c1.5,8.1,8.6,13.9,16.8,13.9h33
		c8.2,0,15.3-5.8,16.8-13.9l9.9-52.3c27.9-14.8,48.9-34.1,62.5-57.6c1-1.7,2.5-2.9,4.2-3.5l31.7-10.1c11-3.5,18.3-13.6,18.3-25.1
		V290C490,278.5,482.6,268.4,471.7,264.9z M404.9,181.8c-2.7,23-9.9,42.7-17.1,46.8c-8.2,4.7-27.3,5.6-41.5-4.9
		c-14.3-10.4-19.1-29.3-13.8-54.4l0,0c0.5-2.5,2.3-4.7,4.8-5.8c35-16,55.1-21.3,62.6-21.3c1.1,0,2,0.1,2.5,0.3
		C404.7,145,407.7,158.6,404.9,181.8z M29.6,259.4c-0.7-1.5,1-4.1,2.1-5.6c1.7-2.2,3.3-2.7,4.5-2.7c0.2,0,0.5,0,0.7,0
		c3.2,0.4,7.7,4,10.1,9.9c0.6,1.4,1.3,3.7,1.4,6.6C38.7,265.6,31.3,262.7,29.6,259.4z"/>
	<g id="_2113792359872">
		<g>
			<path class="st2" d="M233.1,102.1v-25c8.6,0.6,11.8,4.6,14.8,4.6c3.7,0,5.4-4.7,5.4-7c0-6-11.8-8.6-20.2-8.9v-3.3
				c0-1.5-1.9-2.8-3.7-2.8c-2.1,0-3.6,1.4-3.6,2.8V66c-11.7,1.2-23.4,7.4-23.4,22.9c0,15.8,12.3,20.2,23.4,24.1V142
				c-12.6-1-15.9-9.6-20-9.6c-3.1,0-5.6,4.1-5.6,7c0,6,10.3,14.3,25.6,14.5l0,0v3.8c0,1.5,1.5,2.8,3.6,2.8c1.8,0,3.7-1.4,3.7-2.8
				v-4.2c13.3-1.9,22.4-10.2,22.4-25.4C255.5,111.5,243.8,106.1,233.1,102.1z M226.5,99.8c-6.5-2.5-11.8-5-11.8-12.1
				c0-6.4,4.9-9.5,11.8-10.3V99.8z M232.3,141.8v-26c6,2.6,10.8,6,10.8,13.8C243.2,136.6,239,140.5,232.3,141.8z"/>
		</g>
	</g>
	<g id="_2113792359776">
	</g>
	<g id="_2113792360224">
	</g>
	<g id="_2113792361312">
	</g>
	<g id="_2113792361184">
	</g>
	<g id="_2113792360672">
	</g>
	<g id="_2113792360512">
	</g>
	<g id="_2113792358112">
	</g>
	<g id="_2113792358880">
	</g>
	<g id="_2113792358336">
	</g>
	<g id="_2113792358784">
	</g>
	<g id="_2113792359424">
	</g>
	<g id="_2113792358048">
	</g>
	<g id="_2113792358944">
	</g>
	<g id="_2113792356448">
	</g>
	<g id="_2113792355776">
	</g>
</g>
</svg>
