<?xml version="1.0" encoding="utf-8"?>
<!-- Generator: Adobe Illustrator 25.4.1, SVG Export Plug-In . SVG Version: 6.00 Build 0)  -->
<svg version="1.1" id="Capa_1" xmlns="http://www.w3.org/2000/svg" xmlns:xlink="http://www.w3.org/1999/xlink" x="0px" y="0px"
	 viewBox="0 0 500 500" style="enable-background:new 0 0 500 500;" xml:space="preserve">
<style type="text/css">
	.st0{fill-rule:evenodd;clip-rule:evenodd;fill:#FFF212;}
	.st1{fill-rule:evenodd;clip-rule:evenodd;fill:#ED3237;}
	.st2{fill-rule:evenodd;clip-rule:evenodd;fill:#12B36E;}
	.st3{fill-rule:evenodd;clip-rule:evenodd;fill:#FDD1A1;}
	.st4{fill-rule:evenodd;clip-rule:evenodd;}
</style>
<g id="Capa_x0020_1">
	<g id="_2812944797472">
		<polygon class="st0" points="9.3,325.4 46,291 166.2,408.5 129.5,442.9 		"/>
		<ellipse class="st1" cx="120.5" cy="399.9" rx="12.5" ry="10.5"/>
		<circle class="st2" cx="378.6" cy="165.5" r="101.3"/>
		<polygon class="st3" points="65.2,298.2 103.6,266.9 136.4,159.6 229.5,77.5 306.2,84.5 277.3,133.8 228,157.3 221.7,228.5 
			237.4,247.3 302.3,198 349.3,183.1 372.7,190.2 373.5,210.5 273.4,316.9 256.1,338.8 210.8,358.4 154.4,385 		"/>
		<g>
			<path class="st4" d="M120.8,379.1c-11.5,0-20.8,9.3-20.8,20.8c0,11.5,9.3,20.8,20.8,20.8c11.5,0,20.8-9.3,20.8-20.8
				C141.6,388.5,132.2,379.1,120.8,379.1z M120.8,406.8c-3.7,0-6.8-3-6.8-6.8s3-6.8,6.8-6.8c3.7,0,6.8,3,6.8,6.8
				S124.5,406.8,120.8,406.8z"/>
		</g>
		<g>
			<path class="st4" d="M456.7,87c-19.6-19.6-45.5-31.1-73.2-32.4c-26.4-1.3-52.3,6.8-73.1,22.9l-5.3-0.6
				c-15.8-1.8-48.7-5.6-56.4-6.5c-11.2-1.4-22.7,2-31.4,9.3L150.3,135c-10.8,8.9-18.5,20.8-22.2,34.3c-7.4,26.8-21.1,74.1-30.8,93.2
				l-29.4,29.4l-2-1.9c-3.1-3.1-7.2-4.8-11.6-4.8s-8.5,1.7-11.6,4.8l-27.6,27.6c-6.4,6.4-6.4,16.7,0,23.1l7.3,7.3
				c2.7,2.7,7,2.7,9.7,0c2.7-2.7,2.7-7,0-9.7l-7.3-7.3c-0.7-0.7-0.8-1.5-0.8-1.9c0-0.4,0.1-1.2,0.8-1.9l27.6-27.6
				c0.7-0.7,1.5-0.8,1.9-0.8s1.2,0.1,1.9,0.8l6.8,6.8l0,0l43.2,43.2l50,50c0.7,0.7,0.8,1.5,0.8,1.9c0,0.4-0.1,1.2-0.8,1.9
				l-27.6,27.6c-0.7,0.7-1.4,0.8-1.9,0.8c-0.4,0-1.2-0.1-1.9-0.8l-61.7-61.7c-2.7-2.7-7-2.7-9.7,0c-2.7,2.7-2.7,7,0,9.7l61.7,61.7
				c3.2,3.2,7.4,4.8,11.6,4.8c4.2,0,8.4-1.6,11.6-4.8l27.6-27.6c3.1-3.1,4.8-7.2,4.8-11.6c0-4.4-1.7-8.5-4.8-11.6l-2-2l4.3-4.3
				c3.7-3.7,8.3-6.4,13.3-7.9c0.1,0,0.2,0,0.3-0.1l50.2-16.9c17.1-5.9,32-16.4,43.2-30.6l25.2-31.8l67.2-67.2
				c3.2,0.6,7.1,1,10.7,1.1v5.5c0,2.1,2.1,4,5.1,4c2.6,0,5.3-1.9,5.3-4v-6c19-2.6,32-14.6,32-36.2c0-23.9-16.7-31.7-32-37.3v-35.7
				c12.3,0.9,16.9,6.5,21.1,6.5c5.3,0,7.7-6.7,7.7-10c0-8.6-16.9-12.3-28.9-12.7v-4.7c0-2.1-2.6-4.1-5.3-4.1c-3,0-5.1,1.9-5.1,4.1
				v5.1c-16.7,1.8-33.4,10.6-33.4,32.7c0,22.5,17.6,28.9,33.4,34.5v13.6c-4.8-5.7-12.7-9.1-22.9-9.6c-23.2-1.3-55.4,11.7-73.1,29.5
				c-11.3,11.3-24.2,24.2-31.3,31.3c-2.2,2.2-5.1,3.4-8.3,3.4h-0.2c-4.7,0-11.3-5.1-13.1-10v-67.5l22.5-18.5l17.7-2.7
				c-3.5,15.8-3.5,32.3,0,48.2c0.7,3.2,3.5,5.4,6.7,5.4c0.5,0,1,0,1.5-0.2c3.7-0.8,6-4.5,5.2-8.2c-3.8-17-2.9-34.7,2.4-51.2
				c0,0,0-0.1,0.1-0.2c0,0,0,0,0-0.1c4.8-14.6,12.8-27.6,23.7-38.6c2.3-2.3,4.8-4.5,7.4-6.7c0,0,0.1-0.1,0.2-0.1c0,0,0,0,0,0
				c18.6-15.1,42.1-22.8,66.1-21.6c24.2,1.2,47,11.3,64.1,28.4c18.4,18.4,28.5,42.9,28.5,68.9c0,26-10.1,50.5-28.5,68.9
				c-24.3,24.3-60,34-93.3,25.5c-3.7-1-7.4,1.2-8.4,4.9c-0.9,3.7,1.3,7.4,4.9,8.3c9.1,2.4,18.5,3.5,27.8,3.5
				c9.6,0,19.1-1.2,28.4-3.7c18.9-5,36.3-15,50.2-28.9c21-21,32.6-48.9,32.6-78.6C489.3,135.9,477.8,108,456.7,87z M387.6,175.9
				c8.6,3.7,15.5,8.6,15.5,19.7c0,10-6,15.7-15.5,17.4V175.9z M362.5,135.8c0-9.2,7-13.6,16.9-14.8v32
				C370,149.5,362.5,145.9,362.5,135.8z M331,246.6l-6.4-6.4c-1.2-1.2-1.8-2.7-1.8-4.3s0.6-3.2,1.8-4.3l11.2-11.2
				c3.6-3.6,8.3-5.4,13-5.4c3.7,0,7.4,1.1,10.6,3.3L331,246.6z M273.9,127l-26,4c-1.2,0.2-2.4,0.7-3.3,1.5l-26.4,21.8
				c-1.6,1.3-2.5,3.2-2.5,5.3v71.7c0,0.6,0.1,1.2,0.2,1.8c3,11.2,15.4,20.9,26.6,20.9h0.2c6.8,0,13.2-2.6,18-7.4
				c7.1-7.1,20-20,31.3-31.3c15.1-15.1,43.2-26.5,62.7-25.5c4.4,0.2,10.3,1.3,13.2,4.9c0.2,0.2,0.3,0.4,0.5,0.6
				c1.4,1.4,5.4,5.4,0.4,12.9c-12.6-10-31-9.2-42.6,2.4l-11.2,11.2c-3.7,3.7-5.8,8.7-5.8,14s2.1,10.3,5.8,14l6.4,6.4l-30.9,30.9
				c-0.2,0.2-0.4,0.4-0.5,0.6l-25.4,32.1c-9.6,12.1-22.3,21.1-36.8,26.1l-50.1,16.9c-7.2,2.1-13.8,6-19.1,11.3l-4.3,4.3L115.9,340
				l-38.4-38.4l30.2-30.2c0.5-0.5,0.9-1.1,1.2-1.7c10.3-19.6,24.7-69.1,32.3-96.8c3-10.8,9.1-20.3,17.7-27.4l67-55.5
				c5.9-4.8,13.5-7.1,21.1-6.2c6.8,0.8,32.8,3.8,49.8,5.7C286.7,100.5,279,113.1,273.9,127z"/>
		</g>
	</g>
</g>
</svg>
