<?xml version="1.0" encoding="utf-8"?>
<!-- Generator: Adobe Illustrator 25.4.1, SVG Export Plug-In . SVG Version: 6.00 Build 0)  -->
<svg version="1.1" id="Capa_1" xmlns="http://www.w3.org/2000/svg" xmlns:xlink="http://www.w3.org/1999/xlink" x="0px" y="0px"
	 viewBox="0 0 500 500" style="enable-background:new 0 0 500 500;" xml:space="preserve">
<style type="text/css">
	.st0{fill-rule:evenodd;clip-rule:evenodd;fill:#D2D3D5;}
	.st1{fill-rule:evenodd;clip-rule:evenodd;fill:#FFF212;}
	.st2{fill-rule:evenodd;clip-rule:evenodd;}
</style>
<g id="Capa_x0020_1">
	<rect x="203.1" y="402.8" class="st0" width="94.9" height="77.7"/>
	<path class="st1" d="M192.1,397.4h120.8c-0.9-33.3,9.5-64.2,27.5-93.3H163.1C175.3,335.1,188.2,366.3,192.1,397.4z"/>
	<circle class="st1" cx="253.3" cy="222.6" r="117.7"/>
	<g id="_2113576285584">
		<g>
			<path class="st2" d="M250,10c-3.8,0-6.8,3.1-6.8,6.8v36.1c0,3.8,3.1,6.8,6.8,6.8c3.8,0,6.8-3.1,6.8-6.8V16.8
				C256.8,13.1,253.8,10,250,10z"/>
		</g>
	</g>
	<g id="_2113576283728">
		<g>
			<path class="st2" d="M467.2,227.2h-36c-3.8,0-6.9,3.1-6.9,6.8c0,3.8,3.1,6.9,6.9,6.9h36c3.8,0,6.8-3.1,6.8-6.9
				C474.1,230.3,471,227.2,467.2,227.2z"/>
		</g>
	</g>
	<g id="_2113576283632">
		<g>
			<path class="st2" d="M68.8,227.2h-36c-3.8,0-6.8,3.1-6.8,6.8c0,3.8,3.1,6.9,6.8,6.9h36c3.8,0,6.9-3.1,6.9-6.9
				C75.7,230.3,72.6,227.2,68.8,227.2z"/>
		</g>
	</g>
	<g id="_2113576284048">
		<g>
			<path class="st2" d="M408.4,382.8L383,357.3c-2.7-2.7-7-2.7-9.7,0c-2.7,2.7-2.7,7,0,9.7l25.5,25.5c1.4,1.3,3.1,2,4.8,2
				c1.8,0,3.5-0.7,4.8-2C411.1,389.8,411.1,385.5,408.4,382.8z"/>
		</g>
	</g>
	<g id="_2113576284784">
		<g>
			<path class="st2" d="M126.7,101.1l-25.5-25.5c-2.7-2.7-7-2.7-9.7,0c-2.7,2.7-2.7,7,0,9.7l25.5,25.5c1.3,1.4,3.1,2,4.8,2
				c1.8,0,3.5-0.7,4.8-2C129.4,108.1,129.4,103.8,126.7,101.1z"/>
		</g>
	</g>
	<g id="_2113576284240">
		<g>
			<path class="st2" d="M408.4,75.6c-2.7-2.7-7-2.7-9.7,0l-25.5,25.5c-2.7,2.7-2.7,7,0,9.7c1.3,1.4,3.1,2,4.8,2s3.5-0.7,4.8-2
				l25.5-25.5C411.1,82.7,411.1,78.3,408.4,75.6z"/>
		</g>
	</g>
	<g id="_2113576281456">
		<g>
			<path class="st2" d="M126.7,357.3c-2.7-2.7-7-2.7-9.7,0l-25.5,25.5c-2.7,2.7-2.7,7,0,9.7c1.3,1.3,3.1,2,4.8,2
				c1.7,0,3.5-0.7,4.8-2l25.5-25.5C129.4,364.3,129.4,360,126.7,357.3z"/>
		</g>
	</g>
	<g id="_2113576281680">
		<g>
			<path class="st2" d="M376,197.6c-0.7-3.7-4.3-6.1-8-5.4c-3.7,0.7-6.2,4.3-5.4,8c1.4,7.2,2.1,14.5,2.1,21.9
				c0,25.2-8,49.1-23.2,69.1c-23.1,30.5-36.4,66.1-38.6,103.1H298h-96h-4.8c-0.6-11-2.2-22.1-4.8-32.7c-1.6-6.8-3.6-13.5-5.9-20
				c-2.7-7.6-6-15.1-9.7-22.2c-5-9.5-10.8-18.7-17.3-27.1c-15.9-20.4-24.2-44.9-24.1-70.8c0.2-29.8,12.2-58.2,33.9-79.9
				s50.1-33.9,79.9-34.1c40.3-0.3,77,20,98.3,54.3c2,3.2,6.2,4.2,9.4,2.2c3.2-2,4.2-6.2,2.2-9.4c-11.4-18.4-27.3-33.7-46.1-44.3
				c-19.1-10.8-40.9-16.5-63-16.5c-0.3,0-0.6,0-0.9,0c-33.4,0.2-65.2,13.8-89.5,38.1c-24.3,24.3-37.8,56.2-37.9,89.6
				c-0.2,29,9.2,56.4,26.9,79.3c6,7.8,11.4,16.2,16,25c3.4,6.6,6.4,13.5,8.9,20.5c2.2,6,4,12.3,5.5,18.5c2.5,10.5,4,21.4,4.5,32.3
				c0.3,6.2,5.4,11,11.5,11v52.2c0,16.4,13.4,29.8,29.8,29.8h50.2c16.4,0,29.8-13.4,29.8-29.8v-52.2c6.2,0,11.2-4.8,11.5-11
				c1.7-35,14.1-68.7,36-97.6c17-22.4,25.9-49.2,25.9-77.4C378.3,213.9,377.5,205.7,376,197.6z M275.1,476.3h-50.2
				c-8.1,0-14.8-6-15.9-13.9h82C289.9,470.2,283.2,476.3,275.1,476.3z M291.2,418.3h-27.7c-3.8,0-6.9,3.1-6.9,6.8
				c0,3.8,3.1,6.9,6.9,6.9h27.7v16.7h-82.3v-16.7h11.6c3.8,0,6.9-3.1,6.9-6.9c0-3.8-3.1-6.8-6.9-6.8h-11.6v-10.3h82.3V418.3z"/>
		</g>
	</g>
	<g id="_2113576281936">
		<g>
			<path class="st2" d="M257.7,237.3l-0.6-0.2v-39.8l1,0.1c8.2,0.6,13.3,3.1,17,5c2.2,1.1,3.9,2,5.5,2c4.8,0,7.3-6.4,7.3-9.8
				c0-4.6-5.4-7.6-10-9.2c-5.4-1.9-12.8-3.2-19.9-3.4l-0.9,0v-6c0-1.7-2.4-3.4-4.7-3.4c-2.8,0-4.5,1.8-4.5,3.4v6.3l-0.8,0.1
				c-10.5,1.1-34.9,6.6-34.9,34c0,23.5,18.6,30.1,35.1,35.9l0.6,0.2v45.8l-1-0.1c-12.3-1-18.9-6.6-23.7-10.7c-2.6-2.2-4.7-4-6.7-4
				c-4,0-7.7,5.5-7.7,9.8c0,8.4,14.9,20.9,38.2,21.2l0.9,0v6.8c0,1.6,1.7,3.4,4.5,3.4c2.3,0,4.7-1.7,4.7-3.4v-7.2l0.8-0.1
				c21.2-2.9,33.4-16.7,33.4-37.8C291.2,251.8,274.7,243.6,257.7,237.3z M249,234.3l-1.3-0.5c-10.2-3.8-18.6-8-18.6-19.3
				c0-9.4,6.5-15.2,18.9-16.7l1-0.1V234.3z M257,297.9l-1.1,0.2v-42.2l1.3,0.6c8.9,3.8,17.1,9.1,17.1,21.9
				C274.3,288.9,268.2,295.8,257,297.9z"/>
		</g>
	</g>
	<g id="_2113576281040">
	</g>
	<g id="_2113576280976">
	</g>
	<g id="_2113576282544">
	</g>
	<g id="_2113576280112">
	</g>
	<g id="_2113576280016">
	</g>
	<g id="_2113576279344">
	</g>
	<g id="_2113576280624">
	</g>
	<g id="_2113576279696">
	</g>
	<g id="_2113576279184">
	</g>
	<g id="_2113576279920">
	</g>
	<g id="_2113576280144">
	</g>
	<g id="_2113576277744">
	</g>
	<g id="_2113576277648">
	</g>
	<g id="_2113576278608">
	</g>
	<g id="_2113576277872">
	</g>
</g>
</svg>
