<?xml version="1.0" encoding="utf-8"?>
<!-- Generator: Adobe Illustrator 25.4.1, SVG Export Plug-In . SVG Version: 6.00 Build 0)  -->
<svg version="1.1" id="Capa_1" xmlns="http://www.w3.org/2000/svg" xmlns:xlink="http://www.w3.org/1999/xlink" x="0px" y="0px"
	 viewBox="0 0 500 504" style="enable-background:new 0 0 500 504;" xml:space="preserve">
<style type="text/css">
	.st0{fill-rule:evenodd;clip-rule:evenodd;fill:#8B9E93;}
	.st1{fill-rule:evenodd;clip-rule:evenodd;fill:#5CC6D0;}
	.st2{fill-rule:evenodd;clip-rule:evenodd;fill:#A8CF45;}
	.st3{fill-rule:evenodd;clip-rule:evenodd;fill:#FDD1A1;}
	.st4{fill-rule:evenodd;clip-rule:evenodd;fill:#FFF212;}
	.st5{fill-rule:evenodd;clip-rule:evenodd;}
</style>
<g id="Capa_x0020_1">
	<g id="_2813022056336">
		<polygon class="st0" points="247.4,89.7 272.4,78.5 374.9,77.2 401.2,92.2 423.7,78.5 459.9,84.7 479.9,109.7 482.4,153.5 
			484.9,237.2 473.7,256 458.7,256 456.2,174.7 421.2,172.2 386.2,144.7 334.9,166 266.2,177.2 259.9,124.7 		"/>
		<polygon class="st1" points="206.2,341.6 420.2,341.6 445.2,386.6 445.2,466.6 271.5,466.6 271.5,383.8 232.4,383.2 		"/>
		<polygon class="st2" points="56.5,341.6 205.2,341.6 230.2,386.6 230.2,466.6 56.5,466.6 		"/>
		<rect x="50.2" y="324.1" class="st3" width="41.2" height="57.5"/>
		<path class="st4" d="M169,55.3c71.5,0,97.5,73.7,97.5,118.7c0,45-0.4,34.8-5.8,49.4h4.5v56.2h-43.8c-22.3,18.8-50.8,30-81.8,30
			s-59.5-11.2-81.8-30H14v-56.2h4.5c-5.3-14.6-3.9-31-3.9-47.5c0-49.2,21.6-91.6,60.2-114.6c3-1.8,25.5-3.5,28.7-5.1
			C120.3,48.1,149.1,55.3,169,55.3z"/>
		<path class="st3" d="M47.5,238.2v-56.6c51-0.6,88.5-9.7,120.5-29.4c18.4,22,42.7,27.3,66.9,29v56.9c0,51.7-42,93.7-93.7,93.7
			S47.5,289.9,47.5,238.2L47.5,238.2z M96.3,245.1c3.9,0,7.1-3.2,7.1-7.1v-5.8c0-3.9-3.2-7.1-7.1-7.1c-3.9,0-7,3.2-7,7.1v5.8
			C89.3,242,92.5,245.1,96.3,245.1z M186,245.1c3.9,0,7.1-3.2,7.1-7.1v-5.8c0-3.9-3.2-7.1-7.1-7.1c-3.9,0-7,3.2-7,7.1v5.8
			C179,242,182.1,245.1,186,245.1z M108,285.9c11,6.1,22.1,9.1,33.2,9.1c11.1,0,22.1-3,33.1-9.1c3.4-1.9,4.6-6.2,2.7-9.6
			c-1.9-3.4-6.2-4.6-9.5-2.7c-17.7,9.8-34.9,9.8-52.7,0c-3.4-1.9-7.7-0.7-9.6,2.7S104.6,284.1,108,285.9z"/>
		<path class="st3" d="M265.2,238.2l1.4-59c53-0.6,84.4-12.3,117.8-32c19.1,22,50.7,28.5,75.8,30.3v60.7c0,51.7-43.7,93.7-97.5,93.7
			C296.5,331.9,265.2,289.9,265.2,238.2L265.2,238.2z"/>
		<g>
			<path class="st5" d="M306.9,232.2v5.8c0,3.9,3.2,7.1,7.1,7.1c3.9,0,7-3.2,7-7.1v-5.8c0-3.9-3.2-7.1-7-7.1
				C310.1,225.2,306.9,228.3,306.9,232.2z"/>
			<path class="st5" d="M396.6,232.2v5.8c0,3.9,3.2,7.1,7.1,7.1c3.9,0,7-3.2,7-7.1v-5.8c0-3.9-3.2-7.1-7-7.1
				C399.8,225.2,396.6,228.3,396.6,232.2z"/>
			<path class="st5" d="M385.1,273.7c-17.7,9.8-34.9,9.8-52.7,0c-3.4-1.9-7.7-0.7-9.5,2.7c-1.9,3.4-0.7,7.7,2.7,9.6
				c11,6.1,22.1,9.1,33.1,9.1c11.1,0,22.1-3,33.2-9.1c3.4-1.9,4.6-6.2,2.7-9.6S388.6,271.8,385.1,273.7z"/>
			<path class="st5" d="M433.3,70.7c-10,0-19.8,3.5-27.6,9.8l0,0l-2.8-1.9c-7.4-5.1-16.1-7.8-25-7.8h-93.6c-14.7,0-28.5,5.6-39,15.6
				c-20-22.9-49.5-37.4-82.2-37.4h-28.6l6.8-8c2.5-2.9,2.2-7.4-0.8-9.9c-3-2.5-7.4-2.2-9.9,0.8l-11.1,13.1l-6.4-8.2
				c-2.4-3-6.8-3.6-9.9-1.2c-3,2.4-3.5,6.8-1.2,9.9l3.4,4.4C83.5,52.6,62.8,62,46.2,77c-2.9,2.6-3.1,7-0.5,9.9
				c2.6,2.9,7.1,3.1,9.9,0.5C73.1,71.7,95.7,63,119.2,63h43.8c52.5,0,95.2,42.7,95.2,95.2v109.6c0,2.2-1.8,3.9-4,3.9h-10.7
				c3.4-10.5,5.3-21.8,5.3-33.5v-60.9c0-5.2-4-9.5-9.2-9.8c-26.8-1.5-47.7-6.7-63-27c-3-4-8.6-5-12.8-2.2
				c-31.3,20.2-68.5,29.3-120.8,29.4c-5.3,0-9.7,4.4-9.7,9.7v60.9c0,11.7,1.9,23,5.4,33.5H28c-2.2,0-3.9-1.8-3.9-3.9V158.2
				c0-18,5-35.5,14.6-50.7c2.1-3.3,1.1-7.6-2.2-9.7c-3.3-2.1-7.6-1.1-9.7,2.2c-11,17.4-16.8,37.5-16.8,58.2v109.6
				c0,9.9,8.1,18,18,18h16.5c5.5,11.2,13,21.4,21.9,30h-7.2c-8.9,0-16.1,7.2-16.1,16.1v40.9c0,4,1.5,7.6,3.8,10.4
				c-0.4,2.7-0.6,5.5-0.6,8.3V461c0,7.5,6.2,13.7,13.7,13.7h162.3c7.6,0,13.7-6.2,13.7-13.7c0-73.2,0.1-69.6-0.1-72.9h25
				c1,0,1.7,0.5,2.1,0.9c0.6,0.6,1,1.5,1,2.3v12.5c0,3.9,3.2,7,7,7c3.9,0,7.1-3.2,7.1-7v-12.5c0-4.6-1.8-9-5.1-12.3
				c-3.2-3.2-7.5-5-12-5h-27.5c-3.4-11.1-9.9-20.7-18.5-28h116v6.7c0,15.4,12.5,27.9,27.9,27.9c15.4,0,27.9-12.5,27.9-27.9V346h7.5
				c25,0,45.4,20.4,45.4,45.4v69.2H278v-28.7c0-3.9-3.2-7-7.1-7c-3.9,0-7,3.2-7,7V461c0,7.5,6.1,13.7,13.7,13.7H440
				c7.5,0,13.7-6.2,13.7-13.7v-69.6c0-27.8-19.2-51.2-45-57.7c11.7-6.1,22.3-14.4,31.3-24.6c2.6-2.9,2.2-7.4-0.7-9.9
				c-2.9-2.6-7.4-2.3-9.9,0.7c-17.8,20.4-43.5,32.1-70.6,32.1c-37.9,0-72.9-23.4-87.5-58.3c0.6-1.8,1-3.8,1-5.8v-86.2
				c47.3-1.3,82.7-10.5,113.3-29.3c18.4,22,42.7,27.3,66.8,29v56.9c0,13.9-3,27.2-8.8,39.7c-1.6,3.5-0.1,7.7,3.4,9.4
				c3.5,1.6,7.7,0.1,9.4-3.4c3-6.3,5.3-12.9,6.9-19.6h6.1c11.3,0,20.5-9.2,20.5-20.6V127.4C490,96.1,464.6,70.7,433.3,70.7
				L433.3,70.7z M47.5,238.2v-56.6c51-0.6,88.5-9.7,120.5-29.4c18.4,22,42.7,27.3,66.9,29v56.9c0,51.7-42,93.7-93.7,93.7
				S47.5,289.9,47.5,238.2L47.5,238.2z M127.3,345.1c4.5,0.6,9.1,0.9,13.9,0.9c4.7,0,9.3-0.3,13.8-0.9v7.6c0,7.6-6.2,13.8-13.9,13.8
				c-7.6,0-13.8-6.2-13.8-13.8V345.1z M57.1,331.9c0-1.1,0.9-2.1,2.1-2.1h23c1.1,0,2.1,0.9,2.1,2.1v40.9c0,1.1-0.9,2.1-2.1,2.1h-23
				c-1.1,0-2.1-0.9-2.1-2.1V331.9z M222,391.4v69.2H60.4c0-73.8-0.1-69.1,0.1-71.8h21.8c8.9,0,16.1-7.2,16.1-16.1v-26.1
				c5.8-1,8.8-0.5,15-0.6v6.7c0,15.4,12.5,27.9,27.9,27.9s27.9-12.5,27.9-27.9V346h7.5C201.6,346,222,366.3,222,391.4z M358.8,346
				c4.6,0,9.3-0.3,13.8-0.9v7.6c0,7.6-6.2,13.8-13.8,13.8c-7.7,0-13.9-6.2-13.9-13.8v-7.7C349.5,345.7,354.2,346,358.8,346
				L358.8,346z M305.7,331.9H194.3c18.7-10.7,33.9-26.8,43.5-46.1h16.5c2.3,0,4.5-0.5,6.6-1.2C270.7,304.7,286.6,321.1,305.7,331.9z
				 M475.9,243.7c0,3.6-2.9,6.5-6.4,6.5h-3.6c0.5-4,0.7-8,0.7-12v-60.9c0-5.2-4.1-9.5-9.3-9.8c-26.8-1.5-47.7-6.7-63-27
				c-3-4-8.6-4.9-12.8-2.2c-29.1,18.8-62.9,27.9-109.1,29.2v-9.2c0-22.4-6.8-43.3-18.4-60.7c8-8.2,18.8-12.8,30.4-12.8h93.6
				c6.1,0,12,1.8,17,5.3l5.7,3.9c3.4,2.4,8.1,2.2,11.3-0.4l2.7-2.2c5.3-4.3,11.9-6.6,18.7-6.6c23.5,0,42.6,19.1,42.6,42.6V243.7
				L475.9,243.7z"/>
			<path class="st5" d="M96.3,245.1c3.9,0,7.1-3.2,7.1-7.1v-5.8c0-3.9-3.2-7.1-7.1-7.1c-3.9,0-7,3.2-7,7.1v5.8
				C89.3,242,92.5,245.1,96.3,245.1z"/>
			<path class="st5" d="M186,245.1c3.9,0,7.1-3.2,7.1-7.1v-5.8c0-3.9-3.2-7.1-7.1-7.1c-3.9,0-7,3.2-7,7.1v5.8
				C179,242,182.1,245.1,186,245.1z"/>
			<path class="st5" d="M108,285.9c11,6.1,22.1,9.1,33.2,9.1c11.1,0,22.1-3,33.1-9.1c3.4-1.9,4.6-6.2,2.7-9.6
				c-1.9-3.4-6.2-4.6-9.5-2.7c-17.7,9.8-34.9,9.8-52.7,0c-3.4-1.9-7.7-0.7-9.6,2.7S104.6,284.1,108,285.9z"/>
		</g>
	</g>
</g>
</svg>
