<?xml version="1.0" encoding="utf-8"?>
<!-- Generator: Adobe Illustrator 25.4.1, SVG Export Plug-In . SVG Version: 6.00 Build 0)  -->
<svg version="1.1" id="Capa_1" xmlns="http://www.w3.org/2000/svg" xmlns:xlink="http://www.w3.org/1999/xlink" x="0px" y="0px"
	 viewBox="0 0 500 500" style="enable-background:new 0 0 500 500;" xml:space="preserve">
<style type="text/css">
	.st0{fill-rule:evenodd;clip-rule:evenodd;fill:#00A859;}
	.st1{fill-rule:evenodd;clip-rule:evenodd;fill:#373435;}
	.st2{fill-rule:evenodd;clip-rule:evenodd;fill:#00AFEF;}
	.st3{fill-rule:evenodd;clip-rule:evenodd;fill:#F58634;}
	.st4{fill-rule:evenodd;clip-rule:evenodd;}
</style>
<g id="Capa_x0020_1">
	<g id="_2777846044336">
		<g>
			<path class="st0" d="M327.1,163c-13-19.9-33.6-34.8-58-39.9c-4-0.9-8,1.7-8.9,5.8c-0.8,4.1,1.8,8,5.8,8.9
				c35.4,7.5,61.1,39.1,61.1,75.4c0,42.4-34.5,77-77,77s-77-34.6-77-77c0-36.3,25.7-67.9,61.1-75.4c4.1-0.8,6.6-4.8,5.8-8.9
				c-0.9-4-4.8-6.6-8.9-5.8c-24.5,5.1-45,20-58,39.9V83.5c0-2.1,1.1-4.1,2.8-5c11.9-6.8,21.7-16.6,28.5-28.5c1-1.8,2.9-2.8,5.1-2.8
				h81.2c2.1,0,4.1,1.1,5.1,2.8c6.8,11.9,16.6,21.7,28.5,28.5c1.8,1,2.8,2.9,2.8,5V163L327.1,163z"/>
			<path class="st0" d="M334.7,321.2l-68.2,48.7c-9.8,7.3-23.1,7.3-32.9,0l-67.2-46.7l6.7-60c16.4,25.1,44.8,41.8,77,41.8
				s60.6-16.6,77-41.8L334.7,321.2z"/>
		</g>
		<path class="st1" d="M41.1,199.4c-1.5-4.5,0-9.3,3.9-12.1l80.4-59.6c3-2.2,6.6-2.7,9.9-1.6c0-32.8,0-65.7,0-98.5
			c0-9.9,8-17.9,17.9-17.9H347c9.9,0,17.9,8,17.9,17.9V126c3.3-1.2,6.9-0.6,9.9,1.6l80.4,59.6c3.9,2.8,5.4,7.6,3.9,12.1h5.5
			c3.3,0,6.8,0.7,9.8,2c3.7,1.5,6.2,4.7,6.7,8.7c0.1,0.6,0.1,1.3,0.1,1.9c0.4,0.1,0.8,0.3,1.3,0.4c3.6,1.4,6,4.4,6.7,8.1
			c0.3,1.6,0.5,3.2,0.5,4.8v239.3c0,1.6-0.2,3.2-0.5,4.8c-0.7,3.8-3.1,6.7-6.7,8.1c-0.4,0.1-0.8,0.3-1.3,0.4c0,0.6,0,1.3-0.1,1.9
			c-0.5,4-2.9,7.2-6.7,8.7c-3.1,1.3-6.4,1.9-9.8,1.9H35.5c-3.3,0-6.7-0.7-9.8-1.9c-3.7-1.5-6.2-4.8-6.7-8.7
			c-0.1-0.6-0.1-1.1-0.1-1.7c-0.7-0.1-1.4-0.4-2.1-0.6c-3.6-1.4-6-4.3-6.7-8.1c-0.3-1.6-0.5-3.2-0.5-4.8V225.3
			c0-1.6,0.1-3.2,0.5-4.8c0.7-3.8,3.1-6.7,6.7-8.1c0.7-0.3,1.4-0.5,2.1-0.6c0-0.6,0-1.1,0.1-1.7c0.5-4,2.9-7.2,6.7-8.7
			c3.1-1.3,6.5-1.9,9.8-1.9H41.1z M168.5,318.3c8.1,5.9,16.1,11.9,24.1,17.9c2.3,1.7,3.8,4.1,4.2,6.8c2.7-0.3,5.4,0.4,7.8,2.1
			l27.7,20.6c10.7,7.9,24.8,7.9,35.5,0l27.7-20.6c2.1-1.5,4.5-2.3,6.9-2.2c0.5-2.7,1.9-5,4.2-6.7c8.2-6,16.4-12.1,24.6-18.2
			c-2.6-2.1-4.1-5.1-4.1-8.6V89.2c0-3.2-1.7-6.2-4.4-7.8c-10.8-6.2-19.8-15.1-26-26c-1.6-2.8-4.6-4.4-7.8-4.4h-77.7
			c-3.2,0-6.2,1.7-7.8,4.4c-6.2,10.8-15.1,19.8-26,26c-2.8,1.6-4.4,4.6-4.4,7.8v220.2C173.1,313.1,171.4,316.3,168.5,318.3z"/>
		<path class="st2" d="M368.3,286.9v-76.7h96.3c1.9,0,4,0.4,5.7,1.1L368.3,286.9z"/>
		<polygon class="st2" points="368.3,136.4 448.8,196 368.3,196 		"/>
		<path class="st3" d="M354.1,297.5L338,309.4V89.2c0-7.2-3.8-13.8-10-17.3c-9.1-5.2-16.7-12.7-21.9-21.9c-3.5-6.2-10.1-10-17.2-10
			h-77.7c-7.2,0-13.8,3.8-17.2,10c-5.2,9.1-12.7,16.7-21.9,21.9c-6.2,3.5-10,10.1-10,17.3v220.2l-16.1-11.9c0-10.9,0-258,0-270
			c0-3.9,3.2-7,7.1-7H347c3.9,0,7.1,3.1,7.1,7V297.5z"/>
		<path class="st2" d="M470.3,478.4c-1.8,0.7-3.7,1.1-5.7,1.1H35.5c-1.8,0-3.8-0.3-5.7-1.1l168.3-124.6l27.8,20.6
			c14.5,10.7,33.9,10.7,48.5,0l27.8-20.6L470.3,478.4z"/>
		<path class="st2" d="M20.8,467.3c-0.2-0.9-0.3-1.8-0.3-2.8V225.3c0-1,0.1-1.9,0.3-2.8c18.6,13.8,146,108.1,165.3,122.4L20.8,467.3
			z"/>
		<path class="st2" d="M35.5,210.3h96.3v76.7l-102-75.6C31.7,210.6,33.7,210.3,35.5,210.3z"/>
		<polygon class="st2" points="131.8,136.4 131.8,196 51.4,196 		"/>
		<path class="st4" d="M297,207.2h-6.5c-2.7-11-11.7-19.2-22.5-19.2c-11.2,0-20.3,10.4-25.1,28.6c-2.8,10.4-7,10.4-10.4,10.4
			c-3.7,0-9.3-3.7-9.3-14c0-5.7,2.1-9.7,4.1-12.2c1.8-2.3,1.9-5.5,0.4-8c-2.6-4.2-8.6-4.6-11.7-0.7c-2.8,3.6-5.5,8.5-6.6,15h-5.9
			c-3.9,0-7.3,3-7.4,6.9c-0.1,4,3.1,7.3,7.1,7.3h6.7c3.1,13,13.1,19.9,22.6,19.9c12.4,0,20.6-7.1,24.2-21.1c3.1-11.7,8.1-18,11.3-18
			c4.2,0,9,4.8,9,11.7c0,7.6-6.1,13.8-6.3,13.9c-2.8,2.7-2.9,7.2-0.2,10.1c2.7,2.8,7.3,2.9,10.1,0.2c0.9-0.8,7.2-7.2,9.6-16.7h6.4
			c3.9,0,7.3-3,7.4-6.9C304.2,210.5,301,207.2,297,207.2z"/>
		<path class="st2" d="M478.5,467.3c0.1-0.9,0.3-1.8,0.3-2.8V225.3c0-1-0.1-1.9-0.3-2.8c-18.6,13.8-146,108.1-165.3,122.4
			L478.5,467.3z"/>
	</g>
</g>
</svg>
