<?xml version="1.0" encoding="utf-8"?>
<!-- Generator: Adobe Illustrator 25.4.1, SVG Export Plug-In . SVG Version: 6.00 Build 0)  -->
<svg version="1.1" id="Capa_1" xmlns="http://www.w3.org/2000/svg" xmlns:xlink="http://www.w3.org/1999/xlink" x="0px" y="0px"
	 viewBox="0 0 406 406" style="enable-background:new 0 0 406 406;" xml:space="preserve">
<style type="text/css">
	.st0{fill-rule:evenodd;clip-rule:evenodd;fill:#C8A2CB;}
	.st1{fill-rule:evenodd;clip-rule:evenodd;fill:#CCE7D4;}
	.st2{fill-rule:evenodd;clip-rule:evenodd;fill:#D2E28B;}
	.st3{fill-rule:evenodd;clip-rule:evenodd;fill:#FDD1A1;}
	.st4{fill-rule:evenodd;clip-rule:evenodd;fill:#FFF212;stroke:#373435;stroke-width:0.5669;stroke-miterlimit:10;}
	.st5{fill-rule:evenodd;clip-rule:evenodd;fill:#91D8F7;stroke:#373435;stroke-width:0.5669;stroke-miterlimit:10;}
	.st6{fill-rule:evenodd;clip-rule:evenodd;fill:#00A859;stroke:#373435;stroke-width:0.5669;stroke-miterlimit:10;}
	.st7{fill-rule:evenodd;clip-rule:evenodd;}
</style>
<g id="Capa_x0020_1">
	<path class="st0" d="M148.4,282.6c-2.3,0-4.1,1.8-4.1,4.1v43.9h-29.5v-62.9c0-19.5,14.5-35.6,33.3-38.2c-1.6,7.3-0.6,14.9,3.1,21.7
		c0,0,0.1,0.1,0.1,0.1l16.2,27.9c1,1.8,3.6,2.6,5.4,1.6l12.2-6.4l4.2,12.8L177.5,349c-0.2,1.2,0.1,2.4,0.8,3.3l21.3,26.9
		c1.6,2,4.8,2,6.4,0l21.3-26.9c0.7-0.9,1-2.1,0.8-3.3l-11.5-62l4.2-12.7l11.8,6.2c1.8,1,4.4,0.2,5.4-1.6l16.2-27.9c0,0,0-0.1,0-0.1
		c3.7-6.6,4.7-14.2,3.2-21.4c18.8,2.6,33.3,18.7,33.3,38.2v62.9h-29.8v-43c0-2.3-1.8-4.1-4.1-4.1c-2.3,0-4.1,1.8-4.1,4.1v98.2H152.5
		v-99.1C152.5,284.4,150.7,282.6,148.4,282.6z"/>
	<path class="st1" d="M158.3,225.4c2.9-5.4,7.9-9.4,13.7-11v11.4c0,0.9,0.3,1.8,0.9,2.5l23.8,30.7l-24.1,12.7l-14.2-24.5
		C154.7,240.4,154.6,232.2,158.3,225.4L158.3,225.4z"/>
	<polygon class="st2" points="219.6,348.7 202.7,370.1 185.9,348.8 196.9,291.1 209,291.1 	"/>
	<polygon class="st2" points="209.3,282.9 196.5,282.9 192.4,270.5 202.9,265 213.3,270.5 	"/>
	<path class="st1" d="M232.5,228c0.5-0.7,0.9-1.6,0.9-2.5v-11.8c13.9,3.9,20.6,20.6,13.7,33.3l-14.2,24.5l-24.1-12.7L232.5,228z"/>
	<path class="st3" d="M256.7,159.9l2.6-0.1c-12.7,14.4-23.4,29.5-30,46v16l-24,38l-26-35c-0.1-18.3-5.7-34.2-17-47.9
		c-18.1-12.4-30-33.1-30-56.6c0-37.8,30.7-68.5,68.5-68.5s68.5,30.6,68.5,68.5C269.2,135.1,264.6,148.8,256.7,159.9z"/>
	<ellipse class="st4" cx="347.2" cy="202.4" rx="44" ry="45.5"/>
	<ellipse class="st5" cx="61.2" cy="202.4" rx="44" ry="45.5"/>
	<ellipse class="st6" cx="202.7" cy="118.4" rx="39.5" ry="36.5"/>
	<rect x="259.2" y="336.9" class="st3" width="36" height="52"/>
	<rect x="112.2" y="336.9" class="st3" width="36" height="52"/>
	<g id="_2113576292368">
		<g>
			<g id="XMLID_210_">
				<g id="XMLID_215_">
					<g>
						<path class="st7" d="M202.8,27.7c-2.3,0-4.1-1.8-4.1-4.1v-8.5c0-2.3,1.8-4.1,4.1-4.1s4.1,1.8,4.1,4.1v8.5
							C206.9,25.9,205.1,27.7,202.8,27.7z"/>
					</g>
				</g>
				<g id="XMLID_214_">
					<g>
						<path class="st7" d="M130.6,59.7c-1,0-2.1-0.4-2.9-1.2l-5.9-6c-1.6-1.6-1.6-4.2,0-5.8c1.6-1.6,4.2-1.6,5.8,0.1l5.9,6
							C135.9,55.2,134,59.7,130.6,59.7L130.6,59.7z"/>
					</g>
				</g>
				<g id="XMLID_213_">
					<g>
						<path class="st7" d="M109.7,110.5h-8.4c-2.3,0-4.1-1.8-4.1-4.1c0-2.3,1.8-4.1,4.1-4.1h8.4c2.3,0,4.1,1.8,4.1,4.1
							C113.7,108.6,111.9,110.5,109.7,110.5z"/>
					</g>
				</g>
				<g id="XMLID_212_">
					<g>
						<path class="st7" d="M304.7,110.1h-8.4c-2.3,0-4.1-1.8-4.1-4.1s1.8-4.1,4.1-4.1h8.4c2.3,0,4.1,1.8,4.1,4.1
							S307,110.1,304.7,110.1z"/>
					</g>
				</g>
				<g id="XMLID_211_">
					<g>
						<path class="st7" d="M275.2,59.5c-3.4,0-5.3-4.5-2.9-7l6-6c1.6-1.6,4.2-1.6,5.8,0c1.6,1.6,1.6,4.2,0.1,5.8l-6,6
							C277.3,59.1,276.2,59.5,275.2,59.5L275.2,59.5z"/>
					</g>
				</g>
			</g>
			<g>
				<g>
					<path class="st7" d="M187.6,268.3L187.6,268.3z"/>
				</g>
			</g>
			<g>
				<g id="XMLID_37_">
					<g>
						<path class="st7" d="M202.9,162.6c-24,0-43.5-19.5-43.5-43.4c0-24,19.5-43.5,43.5-43.5s43.5,19.5,43.5,43.5
							C246.3,143.2,226.8,162.6,202.9,162.6z M202.9,83.9c-19.4,0-35.3,15.8-35.3,35.3c0,19.4,15.8,35.2,35.3,35.2
							c19.5,0,35.3-15.8,35.3-35.2C238.1,99.8,222.3,83.9,202.9,83.9z"/>
					</g>
				</g>
				<g>
					<g>
						<path class="st7" d="M196.1,136.4c-1.2,0-2.2-0.5-3.1-1.4l-10.1-11.8c-1.5-1.7-1.2-4.3,0.5-5.8c1.7-1.5,4.3-1.2,5.8,0.5
							l7.1,8.3l20.4-22.6c1.5-1.7,4.1-1.8,5.8-0.3c1.7,1.5,1.8,4.1,0.3,5.8L199.2,135C198.4,135.9,197.3,136.4,196.1,136.4
							L196.1,136.4z"/>
					</g>
				</g>
			</g>
		</g>
		<g>
			<g>
				<g>
					<path class="st7" d="M345.8,252c-27.2,0-49.2-22.1-49.2-49.2s22.1-49.2,49.2-49.2c27.1,0,49.2,22.1,49.2,49.2
						S372.9,252,345.8,252z M345.8,161.8c-22.6,0-41,18.4-41,41s18.4,41,41,41c22.6,0,41-18.4,41-41S368.4,161.8,345.8,161.8z"/>
				</g>
			</g>
			<g>
				<g>
					<path class="st7" d="M345.8,231.2c-7.5,0-14.5-3-19.6-8.5c-1.5-1.6-1.4-4.3,0.2-5.8c1.6-1.6,4.3-1.5,5.8,0.2
						c3.6,3.8,8.4,5.9,13.6,5.9c5.2,0,10-2.1,13.6-5.9c1.6-1.6,4.1-1.7,5.8-0.2c1.7,1.5,1.7,4.1,0.2,5.8
						C360.2,228.2,353.3,231.2,345.8,231.2z"/>
				</g>
			</g>
			<g>
				<g>
					<ellipse class="st7" cx="363.5" cy="192.4" rx="4.9" ry="5.7"/>
				</g>
			</g>
			<g>
				<g>
					<ellipse class="st7" cx="328.1" cy="192.4" rx="4.9" ry="5.7"/>
				</g>
			</g>
		</g>
		<g>
			<g>
				<g>
					<path class="st7" d="M60.2,252C33.1,252,11,229.9,11,202.8s22.1-49.2,49.2-49.2c27.2,0,49.2,22.1,49.2,49.2S87.4,252,60.2,252z
						 M60.2,161.8c-22.6,0-41,18.4-41,41s18.4,41,41,41s41-18.4,41-41S82.8,161.8,60.2,161.8z"/>
				</g>
			</g>
			<g>
				<g>
					<path class="st7" d="M60.2,231.2c-7.5,0-14.5-3-19.6-8.5c-1.6-1.6-1.5-4.3,0.2-5.8c1.6-1.6,4.3-1.5,5.8,0.2
						c3.6,3.8,8.4,5.9,13.6,5.9c5.2,0,10.1-2.1,13.6-5.9c1.5-1.6,4.1-1.7,5.8-0.2c1.6,1.5,1.7,4.1,0.2,5.8
						C74.7,228.2,67.7,231.2,60.2,231.2z"/>
				</g>
			</g>
			<g>
				<g>
					<ellipse class="st7" cx="77.9" cy="192.4" rx="4.9" ry="5.7"/>
				</g>
			</g>
			<g>
				<g>
					<ellipse class="st7" cx="42.5" cy="192.4" rx="4.9" ry="5.7"/>
				</g>
			</g>
		</g>
		<g>
			<g>
				<g>
					<path class="st7" d="M62.7,335.6h-8.1c-2.3,0-4.1-1.8-4.1-4.1c0-2.2,1.8-4.1,4.1-4.1h8.1c2.3,0,4.1,1.8,4.1,4.1
						C66.8,333.7,65,335.6,62.7,335.6z"/>
				</g>
			</g>
			<g>
				<g>
					<path class="st7" d="M31.4,335.6h-8.1c-2.3,0-4.1-1.8-4.1-4.1c0-2.2,1.8-4.1,4.1-4.1h8.1c2.3,0,4.1,1.8,4.1,4.1
						C35.5,333.7,33.7,335.6,31.4,335.6z"/>
				</g>
			</g>
			<g>
				<g>
					<path class="st7" d="M43,355.2c-2.3,0-4.1-1.8-4.1-4.1V343c0-2.2,1.8-4.1,4.1-4.1c2.2,0,4.1,1.8,4.1,4.1v8.1
						C47.1,353.4,45.3,355.2,43,355.2z"/>
				</g>
			</g>
			<g>
				<g>
					<path class="st7" d="M43,324c-2.3,0-4.1-1.8-4.1-4.1v-8.1c0-2.3,1.8-4.1,4.1-4.1c2.2,0,4.1,1.8,4.1,4.1v8.1
						C47.1,322.2,45.3,324,43,324z"/>
				</g>
			</g>
		</g>
		<g>
			<g>
				<g>
					<path class="st7" d="M382.7,335.6h-8.1c-2.3,0-4.1-1.8-4.1-4.1c0-2.2,1.8-4.1,4.1-4.1h8.1c2.3,0,4.1,1.8,4.1,4.1
						C386.8,333.7,385,335.6,382.7,335.6z"/>
				</g>
			</g>
			<g>
				<g>
					<path class="st7" d="M351.4,335.6h-8.1c-2.3,0-4.1-1.8-4.1-4.1c0-2.2,1.8-4.1,4.1-4.1h8.1c2.3,0,4.1,1.8,4.1,4.1
						C355.5,333.7,353.7,335.6,351.4,335.6z"/>
				</g>
			</g>
			<g>
				<g>
					<path class="st7" d="M363,355.2c-2.2,0-4.1-1.8-4.1-4.1V343c0-2.2,1.8-4.1,4.1-4.1c2.3,0,4.1,1.8,4.1,4.1v8.1
						C367.1,353.4,365.3,355.2,363,355.2z"/>
				</g>
			</g>
			<g>
				<g>
					<path class="st7" d="M363,324c-2.2,0-4.1-1.8-4.1-4.1v-8.1c0-2.3,1.8-4.1,4.1-4.1c2.3,0,4.1,1.8,4.1,4.1v8.1
						C367.1,322.2,365.3,324,363,324z"/>
				</g>
			</g>
		</g>
		<g>
			<path class="st7" d="M316.2,385.6H299V267.5c0-25-19.8-45.5-44.6-46.7c0,0,0-0.1,0-0.1c-5-9.3-14.1-15.3-24.5-16.2
				c-0.1,0-0.2,0-0.2,0c-0.1,0-0.1,0-0.2,0c-0.1,0-0.1,0-0.2,0h-49.6c-2.1-14-9.1-26.9-20.2-36.7c-13.9-12.3-21.9-30-21.9-48.5
				c0-35.7,29.3-64.8,65.2-64.8s65.2,29.1,65.2,64.8c0,16.1-6,31.6-16.9,43.5c-1.5,1.7-1.4,4.3,0.3,5.8c1.7,1.5,4.3,1.4,5.8-0.3
				c12.3-13.5,19-30.9,19-49.1c0-40.3-32.9-73-73.4-73c-40.5,0-73.4,32.8-73.4,73c0,20.9,9,40.8,24.7,54.6
				c9.6,8.5,15.8,19.7,17.5,31.9c-8.4,1.9-15.7,7.3-20.1,15c-24.9,1-44.8,21.6-44.8,46.7v76.2c0,2.3,1.8,4.1,4.1,4.1
				s4.1-1.8,4.1-4.1v-5.1h29.5v47H63.5c-2.3,0-4.1,1.8-4.1,4.1s1.8,4.1,4.1,4.1h252.7c2.2,0,4.1-1.8,4.1-4.1
				S318.5,385.6,316.2,385.6z M261.1,385.6v-47h29.8v47H261.1z M232.6,227.8c0.5-0.7,0.9-1.6,0.9-2.5v-11.8
				c13.9,3.9,20.6,20.6,13.7,33.3L233,271.3l-24.1-12.7L232.6,227.8z M209.4,282.7h-12.8l-4.1-12.4l10.5-5.5l10.4,5.5L209.4,282.7z
				 M219.8,348.5l-16.9,21.3L186,348.6l11-57.7h12.1L219.8,348.5z M180.3,212.8h44.9v11.2l-22.5,29.2l-22.4-28.9V212.8L180.3,212.8z
				 M158.4,225.2c2.9-5.4,7.9-9.4,13.7-11v11.4c0,0.9,0.3,1.8,0.9,2.6l23.8,30.7l-24.1,12.7L158.5,247
				C154.8,240.2,154.8,232,158.4,225.2L158.4,225.2z M148.5,282.4c-2.3,0-4.1,1.8-4.1,4.1v43.9h-29.5v-62.9
				c0-19.5,14.5-35.6,33.3-38.2c-1.6,7.3-0.6,14.9,3.1,21.7c0,0,0,0.1,0,0.1l16.2,27.9c1,1.8,3.6,2.6,5.4,1.6l12.2-6.4l4.2,12.8
				l-11.8,61.8c-0.2,1.2,0.1,2.4,0.8,3.3l21.3,26.9c1.6,2,4.8,2,6.4,0l21.3-26.9c0.7-0.9,1-2.1,0.8-3.3l-11.5-62l4.1-12.8l11.8,6.2
				c1.8,1,4.4,0.3,5.4-1.6l16.2-27.9c0,0,0-0.1,0.1-0.1c3.6-6.6,4.7-14.2,3.2-21.4c18.8,2.6,33.3,18.7,33.3,38.1v62.9h-29.8v-43
				c0-2.3-1.8-4.1-4.1-4.1c-2.3,0-4.1,1.8-4.1,4.1v98.2H152.6v-99.1C152.6,284.2,150.8,282.4,148.5,282.4z"/>
		</g>
		<g>
			<g>
				<circle class="st7" cx="342.5" cy="389.7" r="5.3"/>
			</g>
		</g>
		<g>
			<g>
				<circle class="st7" cx="238.5" cy="184.2" r="5.3"/>
			</g>
		</g>
		<g>
			<g>
				<circle class="st7" cx="110.8" cy="366.2" r="5.3"/>
			</g>
		</g>
	</g>
</g>
</svg>
